<svg xmlns="http://www.w3.org/2000/svg" xmlns:xlink="http://www.w3.org/1999/xlink" viewBox="0 0 406.35 410.95"><defs><style>.cls-1{fill:none;}.cls-2{clip-path:url(#clip-path);}.cls-3{fill:#121212;}</style><clipPath id="clip-path" transform="translate(-98.18 -72)"><rect class="cls-1" width="600" height="600"/></clipPath></defs><g id="Layer_2" data-name="Layer 2"><g id="Layer_1-2" data-name="Layer 1"><g class="cls-2"><path class="cls-3" d="M366.75,219.12l-21-.05a.72.72,0,0,1-.78-.82c.54-2.27,2.32-8.55,5.53-8.55,0,0,.85-.11,3.64,2a.9.9,0,0,0,1,.11,6.61,6.61,0,0,0,2-2.45c1.64-2.89,3-3.79,4-3.79,3.43,0,6.17,10.42,6.45,12.87a.76.76,0,0,1-.81.71m7.68,2.65V203a4.68,4.68,0,0,0-4.69-4.68H341.59a4.69,4.69,0,0,0-4.7,4.68v18.75a4.7,4.7,0,0,0,4.7,4.69h28.15a4.69,4.69,0,0,0,4.69-4.69" transform="translate(-98.18 -72)"/><path class="cls-3" d="M380.3,207.71h0a1.18,1.18,0,0,0-1.18,1.17v18.75a3.52,3.52,0,0,1-3.52,3.52H347.45a1.17,1.17,0,0,0-1.17,1.17,3.52,3.52,0,0,0,3.52,3.52h30.5a3.52,3.52,0,0,0,3.51-3.52V211.23a3.52,3.52,0,0,0-3.51-3.52" transform="translate(-98.18 -72)"/><path class="cls-3" d="M348.67,347.92h-7v-7h7Zm19.38-22.67a2.33,2.33,0,0,0-1.65-.69H341.66a4.69,4.69,0,0,0-4.67,4.67v18.69a4.7,4.7,0,0,0,4.67,4.68H366.4a2.33,2.33,0,0,0,1.65-.69l3.3-3.3A2.33,2.33,0,0,0,372,347V330.2a2.33,2.33,0,0,0-.69-1.65Z" transform="translate(-98.18 -72)"/><path class="cls-3" d="M383.21,325.75a6.88,6.88,0,0,0-4.72,2.38,6.46,6.46,0,0,1-2.64,2.1,2.35,2.35,0,0,0-1.44,2.12v12.46a2.33,2.33,0,0,0,1.44,2.11,6.5,6.5,0,0,1,2.64,2.11,6.88,6.88,0,0,0,4.72,2.38s.51.23.51-.67V326.42c0-.9-.51-.67-.51-.67" transform="translate(-98.18 -72)"/><path class="cls-3" d="M347.51,472.09h-9.35a1.17,1.17,0,0,0-1.17,1.17v4.67a1.17,1.17,0,0,0,1.17,1.17h9.35a1.16,1.16,0,0,0,1.16-1.17v-4.67a1.16,1.16,0,0,0-1.16-1.17" transform="translate(-98.18 -72)"/><path class="cls-3" d="M356.85,472.09h-2.34a1.16,1.16,0,0,0-1.16,1.17v4.67a1.16,1.16,0,0,0,1.16,1.17h2.34a1.17,1.17,0,0,0,1.17-1.17v-4.67a1.17,1.17,0,0,0-1.17-1.17" transform="translate(-98.18 -72)"/><path class="cls-3" d="M368.53,472.09h-4.67a1.17,1.17,0,0,0-1.17,1.17v4.67a1.17,1.17,0,0,0,1.17,1.17h4.67a1.17,1.17,0,0,0,1.17-1.17v-4.67a1.17,1.17,0,0,0-1.17-1.17" transform="translate(-98.18 -72)"/><path class="cls-3" d="M382.55,455.74h-7a1.17,1.17,0,0,1-1.17-1.17v-5.36A.23.23,0,0,0,374,449l-9.26,7.41a2.33,2.33,0,0,0-.19,3.48l9.43,9.43a.23.23,0,0,0,.4-.16v-5.28a1.16,1.16,0,0,1,1.17-1.16h7a1.18,1.18,0,0,0,1.17-1.17V456.9a1.17,1.17,0,0,0-1.17-1.16" transform="translate(-98.18 -72)"/><path class="cls-3" d="M338.16,467.42h26.69a.24.24,0,0,0,.17-.4l-7.49-7.49a2.33,2.33,0,0,1,.19-3.48l11.89-9.51a.21.21,0,0,0,.09-.18v-4.64a1.17,1.17,0,0,0-1.17-1.17H338.16a1.17,1.17,0,0,0-1.17,1.17v24.53a1.18,1.18,0,0,0,1.17,1.17" transform="translate(-98.18 -72)"/></g><polygon class="cls-3" points="273.86 37.24 273.86 38.41 273.86 37.24 273.86 36.08 273.86 37.24"/><g class="cls-2"><path class="cls-3" d="M337.3,96.39a15.23,15.23,0,0,0-.26,2.34,3.47,3.47,0,0,0,0,.47v.3a1.8,1.8,0,0,0,0,.4V96.39Z" transform="translate(-98.18 -72)"/><path class="cls-3" d="M356.24,98.85a5.81,5.81,0,0,0-.56,2.22,4.72,4.72,0,0,1,.56-2.22" transform="translate(-98.18 -72)"/><path class="cls-3" d="M382,103.4h-12.1a1.18,1.18,0,0,0-1.07.73,10.51,10.51,0,0,1-19.24,0,1.19,1.19,0,0,0-1.07-.73h-9.77a1.17,1.17,0,0,0-1.15,1.41,21.59,21.59,0,0,0,5.39,9.9,1.18,1.18,0,0,0,.87.37h33a1.18,1.18,0,0,0,.87-.37,21.59,21.59,0,0,0,5.39-9.9A1.17,1.17,0,0,0,382,103.4" transform="translate(-98.18 -72)"/><path class="cls-3" d="M380,86.13a1.17,1.17,0,0,0-1.8-.17L373,91.13a1.14,1.14,0,0,0-.23,1.3,17.23,17.23,0,0,1,1.42,5.23,1.16,1.16,0,0,0,1.15,1.07h7.13a1.18,1.18,0,0,0,1.18-1.22A22.94,22.94,0,0,0,380,86.13" transform="translate(-98.18 -72)"/><path class="cls-3" d="M363.47,83.39a15.47,15.47,0,0,1,5.5,3.52,1.18,1.18,0,0,0,1.67,0l4.54-4.57a1.17,1.17,0,0,0-.06-1.72,23.17,23.17,0,0,0-11.09-5,1.18,1.18,0,0,0-1.34,1.17V82.3a1.16,1.16,0,0,0,.78,1.09" transform="translate(-98.18 -72)"/><path class="cls-3" d="M346.65,85.84a1.18,1.18,0,0,0,1.58.06,15.4,15.4,0,0,1,8.67-3.48A1.18,1.18,0,0,0,358,81.26V76.83a1.19,1.19,0,0,0-1.34-1.18,23.19,23.19,0,0,0-12.41,6.15,1.17,1.17,0,0,0,0,1.67Z" transform="translate(-98.18 -72)"/><path class="cls-3" d="M340.67,98.73a1.17,1.17,0,0,0,1.15-1.06A17.9,17.9,0,0,1,344,90.94a1.16,1.16,0,0,0-.18-1.39l-2.13-2.13a1.17,1.17,0,0,0-1.84.24,23.13,23.13,0,0,0-2.69,8.73h.19a15.23,15.23,0,0,0-.26,2.34Z" transform="translate(-98.18 -72)"/><path class="cls-3" d="M363.86,89.78l-6.61,6.61a8.65,8.65,0,0,0-1.7,2.32.61.61,0,0,0-.07.14,5.47,5.47,0,0,0-.56,2.22v.07a4.68,4.68,0,0,0,5.49,4.53,4.86,4.86,0,0,0,3.85-4.87V90a.24.24,0,0,0-.4-.17" transform="translate(-98.18 -72)"/><path class="cls-3" d="M133.87,226.38l-24.67-.08a.92.92,0,0,1-.92-1.11c.63-3.12,2.72-11.7,6.49-11.7,0,0,1-.16,4.26,2.7a.94.94,0,0,0,1.17.14,8.57,8.57,0,0,0,2.38-3.35c1.94-3.95,3.55-5.18,4.68-5.18,4,0,7.24,14.25,7.57,17.59a1,1,0,0,1-1,1m8.7-25.65h-42a2.34,2.34,0,0,0-2.34,2.34v28a2.34,2.34,0,0,0,2.34,2.34h42.05a2.34,2.34,0,0,0,2.34-2.34v-28a2.34,2.34,0,0,0-2.34-2.34" transform="translate(-98.18 -72)"/><path class="cls-3" d="M122.79,344.67a4.12,4.12,0,1,0,4.12,4.12,4.12,4.12,0,0,0-4.12-4.12" transform="translate(-98.18 -72)"/><path class="cls-3" d="M122.7,357c-7.74,0-14-7-14-8.17s6.28-8.18,14-8.18,14,7,14,8.18-6.27,8.17-14,8.17m-21.35-21h0v21a4.67,4.67,0,0,0,4.67,4.68h32.72a4.67,4.67,0,0,0,4.67-4.68V336Z" transform="translate(-98.18 -72)"/><path class="cls-3" d="M140,318.69a4.68,4.68,0,0,0-5.88-3l-3.85,1.24v9.81l11.16-3.58Z" transform="translate(-98.18 -72)"/><path class="cls-3" d="M109.87,323.45l-6.93,2.23a4.68,4.68,0,0,0-3,5.88l1.43,4.45,8.52-2.74Z" transform="translate(-98.18 -72)"/></g><polygon class="cls-3" points="27.3 246.44 16.45 249.92 16.45 259.74 27.3 256.25 27.3 246.44"/><g class="cls-2"><path class="cls-3" d="M119.27,462.74v0a1.45,1.45,0,0,1-1.45,1.44h-8.48a1.76,1.76,0,0,0,0,3.51h14.6a8.18,8.18,0,1,0,0-16.35H100a1.75,1.75,0,1,0,0,3.5h10.81a1.45,1.45,0,0,1,1.45,1.45v0a1.45,1.45,0,0,1-1.45,1.45h-6.14a1.75,1.75,0,0,0,0,3.5h13.15a1.46,1.46,0,0,1,1.45,1.45" transform="translate(-98.18 -72)"/><path class="cls-3" d="M144,456.94l-4.26-1.42a16.35,16.35,0,0,0-1.57-4l2.15-4.31a1.15,1.15,0,0,0-.22-1.34L138,443.78a1.19,1.19,0,0,0-1.35-.22l-4.15,2.08a16.51,16.51,0,0,0-4.65-2l-1.46-4.37a1.18,1.18,0,0,0-1.11-.79h-3a1.18,1.18,0,0,0-1.11.79l-1.48,4.45a16.22,16.22,0,0,0-4.13,1.74l-3.46-2.31-4.68,4.67h16.48a11.68,11.68,0,0,1,0,23.36H107.46l4.68,4.67,3.46-2.31a16,16,0,0,0,4,1.72,1.1,1.1,0,0,0,0,.36l1.55,4.68a1.18,1.18,0,0,0,1.11.79h3a1.18,1.18,0,0,0,1.11-.79l1.56-4.68a1.42,1.42,0,0,0,0-.29,16.19,16.19,0,0,0,4.08-1.66.77.77,0,0,0,.19.17l4.41,2.2a1.17,1.17,0,0,0,1.35-.21l2.11-2.12a1.17,1.17,0,0,0,.22-1.35l-2.2-4.4a1.14,1.14,0,0,0-.14-.16,16.36,16.36,0,0,0,1.76-4.27l4.26-1.43a1.16,1.16,0,0,0,.8-1.1v-3a1.16,1.16,0,0,0-.8-1.11" transform="translate(-98.18 -72)"/><path class="cls-3" d="M135.56,102.37h-2.34V86.25A.23.23,0,0,0,133,86H119.21a.24.24,0,0,0-.24.24v4.2a.24.24,0,0,0,.24.24h9.11a.23.23,0,0,1,.23.23v18.46a2.34,2.34,0,0,0,4.67,0V107h2.34a2.34,2.34,0,1,0,0-4.67" transform="translate(-98.18 -72)"/><path class="cls-3" d="M123.65,100H114.8a.23.23,0,0,1-.23-.23V81.34a2.34,2.34,0,0,0-4.68,0v2.34h-2.33a2.34,2.34,0,1,0,0,4.67h2.33v16.12a.23.23,0,0,0,.24.23h13.52a.23.23,0,0,0,.23-.23v-4.2a.24.24,0,0,0-.23-.24" transform="translate(-98.18 -72)"/><path class="cls-3" d="M114.53,109.38l-3,4.46A21,21,0,0,1,101,100H98.65a23.34,23.34,0,0,0,11.61,15.77c.72.42,1.47.77,2.24,1.13a23.81,23.81,0,0,0,9,1.79l-1.8-2.4Z" transform="translate(-98.18 -72)"/><path class="cls-3" d="M132.83,74.92a24.8,24.8,0,0,0-2.25-1.12,23.63,23.63,0,0,0-9-1.8l1.8,2.41,5.21,6.94,3-4.47a21,21,0,0,1,10.52,13.81h2.38a23.39,23.39,0,0,0-11.61-15.77" transform="translate(-98.18 -72)"/><path class="cls-3" d="M498.63,338.58H484.58a1.17,1.17,0,0,1-1.17-1.17V328a1.17,1.17,0,0,1,1.17-1.17h14.05A1.18,1.18,0,0,1,499.8,328v9.37a1.18,1.18,0,0,1-1.17,1.17m-23.42-2.34h-7a1.17,1.17,0,0,1-1.17-1.17v-4.69a1.17,1.17,0,0,1,1.17-1.17h7a1.18,1.18,0,0,1,1.18,1.17v4.69a1.18,1.18,0,0,1-1.18,1.17m24.59-16.39H462.34a4.67,4.67,0,0,0-4.68,4.68V345.6a4.67,4.67,0,0,0,4.68,4.68H499.8a4.68,4.68,0,0,0,4.68-4.68V324.53a4.68,4.68,0,0,0-4.68-4.68" transform="translate(-98.18 -72)"/><path class="cls-3" d="M488.09,352.63H474a2.34,2.34,0,0,0,0,4.68h14a2.34,2.34,0,0,0,0-4.68" transform="translate(-98.18 -72)"/><path class="cls-3" d="M469.42,231.73l24.78,0c.6,0,1-.31.92-.65-.63-1.82-2.73-6.84-6.51-6.84,0,0-1-.09-4.28,1.58a1.51,1.51,0,0,1-1.18.09,6.49,6.49,0,0,1-2.39-2c-1.94-2.31-3.56-3-4.69-3-4.05,0-7.28,8.33-7.61,10.28,0,.31.43.58,1,.58" transform="translate(-98.18 -72)"/><path class="cls-3" d="M498.66,235.78H463.47a1.17,1.17,0,0,1-1.17-1.17V218.25a1.16,1.16,0,0,1,1.17-1.16h35.19a1.17,1.17,0,0,1,1.18,1.16v16.36a1.18,1.18,0,0,1-1.18,1.17m1.18-23.37H462.3a4.69,4.69,0,0,0-4.69,4.68v18.69a4.68,4.68,0,0,0,4.69,4.67h37.54a4.68,4.68,0,0,0,4.69-4.67V217.09a4.69,4.69,0,0,0-4.69-4.68" transform="translate(-98.18 -72)"/><path class="cls-3" d="M464.65,207.74h32.84a2.34,2.34,0,1,0,0-4.67H464.65a2.34,2.34,0,1,0,0,4.67" transform="translate(-98.18 -72)"/><path class="cls-3" d="M469.34,198.4H492.8a2.34,2.34,0,0,0,0-4.68H469.34a2.34,2.34,0,1,0,0,4.68" transform="translate(-98.18 -72)"/><path class="cls-3" d="M498.79,469.27H491.7a1.18,1.18,0,0,1-1.18-1.18V461a1.18,1.18,0,0,0-1.18-1.19h-7.09a1.18,1.18,0,0,1-1.18-1.18v-7.08a1.18,1.18,0,0,0-1.18-1.19H472.8a1.18,1.18,0,0,1-1.18-1.18v-7.08a1.18,1.18,0,0,0-1.18-1.19h-4.07a4.2,4.2,0,0,0-4.2,4.2v29.4a4.2,4.2,0,0,0,4.2,4.2h29.4a4.2,4.2,0,0,0,4.2-4.2v-4.06a1.18,1.18,0,0,0-1.18-1.19" transform="translate(-98.18 -72)"/><path class="cls-3" d="M482.25,450.37h7.09a1.18,1.18,0,0,0,1.18-1.18v-7.08a1.18,1.18,0,0,0-1.18-1.19h-7.09a1.18,1.18,0,0,0-1.18,1.19v7.08a1.18,1.18,0,0,0,1.18,1.18" transform="translate(-98.18 -72)"/><path class="cls-3" d="M498.79,450.37H491.7a1.18,1.18,0,0,0-1.18,1.19v7.08a1.18,1.18,0,0,0,1.18,1.18h7.09a1.18,1.18,0,0,0,1.18-1.18v-7.08a1.18,1.18,0,0,0-1.18-1.19" transform="translate(-98.18 -72)"/><path class="cls-3" d="M499.9,87.84a21.41,21.41,0,0,1,.23,3.22,22.87,22.87,0,0,1-.75,5.82,12.58,12.58,0,0,1,.38,3.15,14,14,0,0,1-14,14,12.47,12.47,0,0,1-3.15-.37,22.87,22.87,0,0,1-5.82.75,20.09,20.09,0,0,1-3.22-.24A18.68,18.68,0,0,0,499.9,87.84" transform="translate(-98.18 -72)"/><path class="cls-3" d="M467.05,100c0,.38,0,.75,0,1.13a14,14,0,1,1,19.79-19.79c-.37,0-.75,0-1.12,0A18.69,18.69,0,0,0,467.05,100m28-9.34A18.7,18.7,0,0,0,476.4,72a18.69,18.69,0,0,0-7.69,35.72,18.31,18.31,0,0,0,7.69,1.66,18.69,18.69,0,0,0,18.69-18.69" transform="translate(-98.18 -72)"/><path class="cls-3" d="M249,223l-17.43,0a.61.61,0,0,1-.65-.72c.43-2,1.85-7.38,4.41-7.61a1.25,1.25,0,0,1,.43,0,8.72,8.72,0,0,1,2.75,1.72.73.73,0,0,0,.83.09,5.64,5.64,0,0,0,1.68-2.18c1.37-2.57,2.51-3.37,3.3-3.37,2.85,0,5.12,9.27,5.35,11.45a.65.65,0,0,1-.67.64m5.36,2.35V208.88a2.35,2.35,0,0,0-2.34-2.35H228.59a2.35,2.35,0,0,0-2.35,2.35V225.3a2.35,2.35,0,0,0,2.35,2.34h23.46a2.34,2.34,0,0,0,2.34-2.34" transform="translate(-98.18 -72)"/><path class="cls-3" d="M245,200.66v-1.17a2.35,2.35,0,0,0-2.35-2.34H220.38a3.51,3.51,0,0,0-3.52,3.51v15.25a2.35,2.35,0,0,0,2.34,2.35h1.18a1.18,1.18,0,0,0,1.17-1.17V205.36a3.52,3.52,0,0,1,3.52-3.52h18.77a1.18,1.18,0,0,0,1.17-1.18" transform="translate(-98.18 -72)"/><path class="cls-3" d="M261.43,215.91h-1.17a1.17,1.17,0,0,0-1.17,1.18v11.73a3.53,3.53,0,0,1-3.52,3.52H234.45a1.17,1.17,0,0,0-1.17,1.17v1.17a2.35,2.35,0,0,0,2.35,2.35h24.63a3.53,3.53,0,0,0,3.52-3.52V218.26a2.35,2.35,0,0,0-2.35-2.35" transform="translate(-98.18 -72)"/><path class="cls-3" d="M240.32,351.7a11.86,11.86,0,1,1,11.85-11.85,11.85,11.85,0,0,1-11.85,11.85m11-25.24a6.83,6.83,0,0,1-1.71-1.74c-.58-.93-2-3.57-2.77-3.57H233.79c-.78,0-2.19,2.64-2.78,3.6a6.9,6.9,0,0,1-1.7,1.71c-11.39,4.21-10.22,6-10.32,6v19.19a4.31,4.31,0,0,0,4.32,4.32h34a4.31,4.31,0,0,0,4.32-4.32V332.49c-.11,0,1.07-1.82-10.32-6" transform="translate(-98.18 -72)"/><path class="cls-3" d="M240.32,332.74a7.11,7.11,0,1,0,7.11,7.11,7.11,7.11,0,0,0-7.11-7.11" transform="translate(-98.18 -72)"/><path class="cls-3" d="M245.91,465.77a6,6,0,0,1-6.61,3.81,5.7,5.7,0,0,1-4-7.73l0-.08a7.24,7.24,0,0,1,1.68-2.29l.14-.13a11,11,0,0,1,3-1.87l10.51-4.54a.29.29,0,0,1,.37.38Zm-5.5-22.53a19.86,19.86,0,1,0,19.86,19.85,19.86,19.86,0,0,0-19.86-19.85" transform="translate(-98.18 -72)"/><path class="cls-3" d="M223,446.42l7.32-5.81a1.17,1.17,0,0,0,.19-1.64l-1.45-1.83a1.19,1.19,0,0,0-1.65-.19l-7.32,5.81a1.16,1.16,0,0,0-.18,1.64l1.45,1.83a1.16,1.16,0,0,0,1.64.19" transform="translate(-98.18 -72)"/><path class="cls-3" d="M260.52,442.76,253.2,437a1.17,1.17,0,0,0-1.64.19L250.11,439a1.16,1.16,0,0,0,.19,1.64l7.32,5.81a1.16,1.16,0,0,0,1.64-.19l1.45-1.83a1.16,1.16,0,0,0-.19-1.64" transform="translate(-98.18 -72)"/><path class="cls-3" d="M255.5,108.21a3.51,3.51,0,1,1,3.51-3.5,3.5,3.5,0,0,1-3.51,3.5m-11.26-6A4.67,4.67,0,1,1,237,96.39a4.75,4.75,0,0,1,.87-.68l.23-.14L254.05,87a.24.24,0,0,1,.31.34L244.43,102Zm-16.77-8.06a3.5,3.5,0,1,1,3.5-3.5,3.5,3.5,0,0,1-3.5,3.5m-2.34,14a3.51,3.51,0,1,1,3.51-3.5,3.5,3.5,0,0,1-3.51,3.5m15.19-28a3.51,3.51,0,1,1-3.51,3.5,3.5,3.5,0,0,1,3.51-3.5m0-4.68a23.36,23.36,0,0,0-16.67,39.72H257A23.36,23.36,0,0,0,240.32,75.5" transform="translate(-98.18 -72)"/></g></g></g></svg>