<svg xmlns="http://www.w3.org/2000/svg" xmlns:xlink="http://www.w3.org/1999/xlink" viewBox="0 0 430.94 418.94"><defs><style>.cls-1{fill:none;}.cls-2{clip-path:url(#clip-path);}.cls-3{fill:#999;}.cls-4{fill:#13abf6;}.cls-5{fill:#212121;}</style><clipPath id="clip-path" transform="translate(-84.53 -72)"><rect class="cls-1" width="600" height="600"/></clipPath></defs><g id="Layer_2" data-name="Layer 2"><g id="Layer_1-2" data-name="Layer 1"><g class="cls-2"><path class="cls-3" d="M170.45,72.89h-.89V85.8h.89ZM170,86.69h-.44v6.23h.89V86.69H170m.45,7.12h-.89V100h.89Zm0,7.12h-.89v20.49h.89ZM170,122.3h-.44v6.22h.89v-6.22H170m.45,7.13h-.89v27l.44.44.45-.44ZM170,158.1l-.44.44v27h.89v-27Zm.45,28.31h-.89v6.22h.89Zm-.89,7.12V214h.89V193.53h-.89m0,27.6h.89V214.9h-.89Zm.89.89h-.89v6.23h.89Zm0,7.12h-.89v12.91h.89Z" transform="translate(-84.53 -72)"/><path class="cls-3" d="M254.58,157H241.67v.89h12.91Zm-13.8,0h-6.23v.89h6.23V157m-7.12,0h-6.23v.89h6.23Zm-7.12,0H206.05c0,.14,0,.29,0,.44s0,.3,0,.45h20.49Zm-21.38,0h-6.22v.89h6.22c0-.15,0-.3,0-.45s0-.3,0-.44M198,157h-27l-.44.44.44.45h27Zm-29.11,0H142v.89h27l.44-.45Zm-27.87,0h-6.22c0,.14,0,.29,0,.44s0,.3,0,.45h6.22Zm-7.12,0H113.46v.89h20.48V157m-21.37,0h-6.23v.89h6.23Zm-7.12,0H99.22v.89h6.23Zm-7.12,0H85.42v.89H98.33V157Z" transform="translate(-84.53 -72)"/><path class="cls-3" d="M254.58,128.54H241.67v.89h12.91Zm-13.8,0H235.6c.13.29.26.59.38.88h4.8Zm-6.16,0h-.07v.88H235c-.12-.29-.25-.59-.39-.88m-1,0h-6.23v.89h6.23Zm-7.12,0h-27l-.64.63v.25h27.61Zm-28.5,0h-6.52c.39.28.77.58,1.15.88h4.74l.63-.62Zm-8,0H150c-.42.28-.83.58-1.23.88h42.44c-.4-.3-.81-.6-1.23-.88m-41.51,0H142v.26l.63.62h4.75c.37-.3.75-.6,1.14-.88m-8,0h-27v.88h27.61v-.25Zm-27.86,0h-6.23v.89h6.23Zm-7.12,0h-.07c-.14.29-.27.59-.4.88h.47Zm-1,0H99.22v.88H104c.12-.29.25-.59.38-.88m-6.07,0H85.42v.89H98.33Z" transform="translate(-84.53 -72)"/><path class="cls-3" d="M254.58,185.52H241.67v.89h12.91Zm-13.8,0H236l-.38.89h5.18Zm-5.77,0h-.46v.89h.07c.14-.3.27-.6.39-.89m-1.35,0h-6.23v.89h6.23Zm-7.12,0H198.93v.26l.64.63h27Zm-29.13,0h-4.75c-.37.3-.75.6-1.14.89H198v-.27Zm-6.19,0H148.78c.4.3.81.6,1.23.89h40c.42-.29.83-.59,1.23-.89m-43.88,0h-4.75l-.63.62v.27h6.52c-.39-.29-.77-.59-1.14-.89m-6.27,0H113.46v.89h27l.64-.63Zm-28.5,0h-6.23v.89h6.23Zm-7.12,0H105c.13.29.26.59.4.89h.07Zm-1.43,0h-4.8v.89h5.18l-.38-.89m-5.69,0H85.42v.89H98.33Z" transform="translate(-84.53 -72)"/><path class="cls-3" d="M198.93,72.89H198V85.8h.89Zm0,13.8H198v4.8l.89.38ZM198,92.45v.47h.89v-.07l-.89-.4m.89,1.36H198V100h.89Zm0,7.12H198V128.8l.89-.9Zm0,28.24-.89.88v4.75c.31.38.61.76.89,1.15v-6.78Zm-.89,7.08v42.44c.31-.4.61-.81.89-1.23v-40c-.28-.42-.58-.83-.89-1.23m.89,42.74c-.28.39-.58.77-.89,1.15v4.75l.89.89V179Zm-.89,7.15V214h.89V187Zm0,35h.89V214.9H198Zm.89.89H198v.47l.89-.4Zm0,1-.89.38v4.8h.89Zm0,6.07H198v12.91h.89Z" transform="translate(-84.53 -72)"/><path class="cls-3" d="M142,72.89h-.89V85.8H142Zm0,13.8h-.89v5.18l.89-.38Zm0,5.76-.89.4v.07H142Zm0,1.36h-.89V100H142Zm0,7.12h-.89v27l.89.9V100.93Zm-.89,28.24V136c.28-.39.58-.77.89-1.15v-4.75Zm.89,7.08c-.31.4-.61.81-.89,1.23v40c.28.42.58.83.89,1.23V136.25ZM141.07,179v6.79l.89-.89v-4.76c-.31-.37-.61-.75-.89-1.14m.89,7.15-.89.9v27H142V186.14Zm-.89,35H142V214.9h-.89Zm.89.89h-.89v.07l.89.4Zm-.89,1v5.18H142v-4.8l-.89-.38m.89,6.07h-.89v12.91H142Z" transform="translate(-84.53 -72)"/><path class="cls-3" d="M254.58,72.89H254l-24,24,.63.63,24-24ZM229.3,97.54l-1.91,1.91,0,.6.6,0,1.91-1.91-.31-.31-.32-.32m-2.76,3.4h-.63l-5.54,5.53.63.63,5.54-5.53Zm-6.8,6.16-20.8,20.81-.9.89-.62.63-2.24,2.23.63.63,2.23-2.23.9-.89.62-.63,20.81-20.81-.31-.32-.32-.31m-25.19,25.19-24.1,24.11-.45.44.63.63.44-.44,24.11-24.11-.31-.32-.32-.31m-25.18,25.18-.44.45L144.82,182l.31.32.32.31,24.1-24.1.45-.45Zm-25.18,25.18L142,184.89l-.9.89-.62.63-20.81,20.8.31.32.32.31,20.8-20.8.9-.89.62-.63,2.24-2.24-.63-.63M119,207.84l-5.54,5.54V214h.63l5.54-5.54c-.21-.2-.42-.42-.63-.63m-7,7-1.91,1.91.31.32.32.31,1.91-1.91,0-.6-.6,0m-2.54,2.54-24,24v.63h.63l24-24-.63-.63" transform="translate(-84.53 -72)"/><path class="cls-3" d="M86.05,72.89h-.63v.63l24,24,.63-.63ZM110.7,97.54l-.32.32-.31.31,1.91,1.91.6,0,0-.6Zm3.39,3.4h-.62v.63L119,107.1l.63-.63Zm6.17,6.16-.32.31-.31.32,20.81,20.81.62.63.9.89,2.23,2.23.63-.63-2.24-2.23-.62-.63-.9-.89Zm25.19,25.19-.32.31-.31.32L168.93,157l.44.44.63.63.45.45,24.1,24.1.32-.31.31-.32-24.11-24.1-.44-.45-.63-.63-.45-.44Zm50.36,50.36-.63.63,2.24,2.24.63.63.89.89,20.8,20.8.32-.31.31-.32-20.81-20.8-.62-.63-.89-.89ZM221,207.84c-.21.21-.42.43-.63.63l5.54,5.54h.63v-.63Zm7,7-.6,0,0,.6,1.91,1.91.32-.31.31-.32Zm2.54,2.54-.63.63,24,24h.63v-.63Z" transform="translate(-84.53 -72)"/><path class="cls-3" d="M170,121.41h-.45a35.87,35.87,0,0,0-21.07,7.11c-.39.29-.77.59-1.15.9-.87.7-1.71,1.45-2.51,2.23l-.63.63c-.78.8-1.53,1.64-2.24,2.51-.3.38-.6.76-.89,1.15A36,36,0,0,0,133.94,157v.89A35.94,35.94,0,0,0,141.06,179c.29.39.59.77.89,1.14.71.88,1.46,1.72,2.24,2.52l.63.63c.8.78,1.64,1.53,2.52,2.24.37.3.75.6,1.14.89a35.94,35.94,0,0,0,21.07,7.12h.89a36,36,0,0,0,21.08-7.12c.39-.29.77-.59,1.14-.89.88-.71,1.72-1.46,2.52-2.24l.63-.63a33.44,33.44,0,0,0,2.23-2.52c.31-.37.61-.75.89-1.14a35.81,35.81,0,0,0,7.12-21.07c0-.15,0-.3,0-.45s0-.3,0-.44A35.81,35.81,0,0,0,198.93,136c-.28-.39-.58-.77-.89-1.15-.7-.87-1.45-1.71-2.23-2.51l-.63-.63c-.8-.78-1.64-1.53-2.51-2.23-.38-.31-.76-.61-1.15-.9a36,36,0,0,0-21.08-7.12H170m-.45.9h.89A34.91,34.91,0,0,1,190,128.53q.63.43,1.23.9a34.87,34.87,0,0,1,3.33,2.86l.32.31.31.32a34.87,34.87,0,0,1,2.86,3.33c.31.4.61.81.89,1.23A34.92,34.92,0,0,1,205.16,157c0,.14,0,.29,0,.44s0,.3,0,.45a34.91,34.91,0,0,1-6.23,19.54c-.28.42-.58.83-.89,1.23a34.87,34.87,0,0,1-2.86,3.33l-.31.32-.32.31a36.47,36.47,0,0,1-3.33,2.87c-.4.3-.81.6-1.23.89a34.91,34.91,0,0,1-19.55,6.22h-.89A35,35,0,0,1,150,186.41c-.42-.29-.83-.59-1.23-.89a36.47,36.47,0,0,1-3.33-2.87l-.32-.31-.31-.32a36.47,36.47,0,0,1-2.87-3.33c-.3-.4-.6-.81-.89-1.23a35.07,35.07,0,0,1-6.23-19.54V157a35.08,35.08,0,0,1,6.23-19.55c.29-.42.59-.83.89-1.23a36.47,36.47,0,0,1,2.87-3.33l.31-.32.32-.31a34.87,34.87,0,0,1,3.33-2.86q.6-.47,1.23-.9a35,35,0,0,1,19.54-6.22" transform="translate(-84.53 -72)"/><path class="cls-3" d="M181.34,86.69H158.66A71.19,71.19,0,0,0,142,91.49l-.89.38c-.76.34-1.52.69-2.27,1h2.1l.17-.07.89-.4a70.68,70.68,0,0,1,27.6-5.76h.89A70.44,70.44,0,0,1,198,92.46c.3.12.6.25.89.39l.17.07h2.11q-1.12-.54-2.28-1l-.89-.38a71,71,0,0,0-16.7-4.8M203,93.81h-2a70.48,70.48,0,0,1,10.41,6.24h1.5A71.13,71.13,0,0,0,203,93.81m-64,0h-2a71.13,71.13,0,0,0-9.93,6.24h1.5A70.48,70.48,0,0,1,139,93.81m75.08,7.13h-1.47a68.63,68.63,0,0,1,7.13,6.16l.32.31.31.32a68.63,68.63,0,0,1,6.16,7.13v-1.47A71.69,71.69,0,0,0,221,107.1l-.63-.63a71.69,71.69,0,0,0-6.29-5.53m-86.7,0h-1.46a70.27,70.27,0,0,0-6.29,5.53l-.63.63a73.49,73.49,0,0,0-5.54,6.29v1.47a69.94,69.94,0,0,1,6.17-7.13l.31-.32.32-.31a69.57,69.57,0,0,1,7.12-6.16m-14.81,13.62a72,72,0,0,0-6.23,9.93v2a70.42,70.42,0,0,1,6.23-10.41Zm114.86,0v1.5a71.29,71.29,0,0,1,6.23,10.41v-2a72,72,0,0,0-6.23-9.93m-122,11.7q-.54,1.13-1,2.28c-.13.29-.26.59-.38.89a71,71,0,0,0-4.8,16.7V157a70.65,70.65,0,0,1,5.76-27.6c.13-.3.26-.6.4-.89,0-.06.05-.12.07-.17Zm129.1,0v2.11s0,.11.07.17c.14.29.27.59.39.89a70.47,70.47,0,0,1,5.77,27.6v.89a70.51,70.51,0,0,1-5.77,27.6c-.12.29-.25.59-.39.89l-.07.16v2.11c.36-.75.71-1.51,1-2.27l.38-.89a71.19,71.19,0,0,0,4.8-16.71V146.13a71,71,0,0,0-4.8-16.7c-.12-.3-.25-.6-.38-.89q-.51-1.16-1-2.28M99.22,157.47v11.34a71.19,71.19,0,0,0,4.8,16.71l.38.89c.34.76.69,1.52,1,2.27v-2.1c0-.06,0-.12-.07-.17-.14-.3-.27-.6-.4-.89a70.68,70.68,0,0,1-5.76-27.6v-.45m134.44,31a71.29,71.29,0,0,1-6.23,10.41v1.5a72,72,0,0,0,6.23-9.93Zm-127.32,0v2a72,72,0,0,0,6.23,9.93v-1.5a70.42,70.42,0,0,1-6.23-10.41m120.19,11.61a68.63,68.63,0,0,1-6.16,7.13l-.31.32-.32.31a69.94,69.94,0,0,1-7.13,6.17h1.47a73.49,73.49,0,0,0,6.29-5.54l.63-.63a71.69,71.69,0,0,0,5.53-6.29Zm-113.07,0v1.46a72,72,0,0,0,5.54,6.29c.21.21.42.43.63.63a72,72,0,0,0,6.29,5.54h1.46a70.92,70.92,0,0,1-7.12-6.17l-.32-.31-.31-.32a70.92,70.92,0,0,1-6.17-7.12m13.63,14.81a72,72,0,0,0,9.93,6.23h2a70.42,70.42,0,0,1-10.41-6.23Zm84.32,0A70.42,70.42,0,0,1,201,221.13h2a72,72,0,0,0,9.93-6.23ZM201.21,222H199.1l-.17.07-.89.4a70.61,70.61,0,0,1-27.6,5.76h10.9a70.5,70.5,0,0,0,16.7-4.8l.89-.38q1.15-.51,2.28-1m-60.32,0h-2.1c.75.36,1.51.71,2.27,1l.89.38a70.71,70.71,0,0,0,16.71,4.8h10.89a70.68,70.68,0,0,1-27.6-5.76l-.89-.4-.17-.07" transform="translate(-84.53 -72)"/><path class="cls-3" d="M219.86,92.92H120.14a14.63,14.63,0,0,0-4.93.85,13.16,13.16,0,0,0-.59,1.19,13.74,13.74,0,0,1,5.52-1.15h99.72A13.74,13.74,0,0,1,225.38,95a13.16,13.16,0,0,0-.59-1.19,14.63,14.63,0,0,0-4.93-.85m6.2,1.37q.28.61.51,1.26a14.58,14.58,0,0,1,2.73,2l.32.31.31.32a14.58,14.58,0,0,1,2,2.73q.65.22,1.26.51a15.09,15.09,0,0,0-2.62-3.87l-.63-.63a15.09,15.09,0,0,0-3.87-2.62m-112.12,0a15.09,15.09,0,0,0-3.87,2.62l-.63.63a15.09,15.09,0,0,0-2.62,3.87q.62-.28,1.26-.51a14.15,14.15,0,0,1,2-2.73l.31-.32.32-.31a14.84,14.84,0,0,1,2.72-2c.16-.43.33-.85.52-1.26m118.57,7.8a13.74,13.74,0,0,1,1.15,5.52v99.72a13.74,13.74,0,0,1-1.15,5.52,11,11,0,0,0,1.19-.59,14.63,14.63,0,0,0,.85-4.93V107.61a14.63,14.63,0,0,0-.85-4.93,13.16,13.16,0,0,0-1.19-.59m-125,0a13.16,13.16,0,0,0-1.19.59,14.63,14.63,0,0,0-.85,4.93v99.72a14.63,14.63,0,0,0,.85,4.93,11,11,0,0,0,1.19.59,13.74,13.74,0,0,1-1.15-5.52V107.61a13.74,13.74,0,0,1,1.15-5.52m-.67,111.44a15.09,15.09,0,0,0,2.62,3.87l.63.63a14.59,14.59,0,0,0,3.87,2.62c-.19-.41-.36-.83-.52-1.26a14,14,0,0,1-2.72-2l-.32-.31-.31-.32a14.39,14.39,0,0,1-2-2.72c-.43-.16-.85-.33-1.26-.52m126.36,0c-.41.19-.83.36-1.26.52a14.84,14.84,0,0,1-2,2.72l-.31.32-.32.31a13.74,13.74,0,0,1-2.73,2q-.23.65-.51,1.26a14.59,14.59,0,0,0,3.87-2.62l.63-.63a15.09,15.09,0,0,0,2.62-3.87M114.62,220a13.16,13.16,0,0,0,.59,1.19,14.63,14.63,0,0,0,4.93.85h99.72a14.63,14.63,0,0,0,4.93-.85,13.16,13.16,0,0,0,.59-1.19,13.74,13.74,0,0,1-5.52,1.15H120.14a13.74,13.74,0,0,1-5.52-1.15" transform="translate(-84.53 -72)"/><path class="cls-4" d="M226.53,100.05H113.47c0,.14,0,.29,0,.44v.45H226.54v-.45c0-.15,0-.3,0-.44m.89,0c0,.15,0,.29,0,.44v.45a13.72,13.72,0,0,1,5.08,1.15,13.16,13.16,0,0,1,1.19.59,13.82,13.82,0,0,1,7.08,12.06v85.47a13.82,13.82,0,0,1-7.08,12,11,11,0,0,1-1.19.59,13.72,13.72,0,0,1-5.08,1.15v.45h-.89V214H113.46v.44c0,.15,0,.3,0,.45H226.53c0-.15,0-.3,0-.45h.89c0,.15,0,.29,0,.44l.6,0a14.87,14.87,0,0,0,3.9-.81c.43-.16.85-.33,1.26-.52a14.71,14.71,0,0,0,8.49-13.32V114.74a14.71,14.71,0,0,0-8.49-13.33q-.62-.28-1.26-.51a14.88,14.88,0,0,0-3.9-.82l-.6,0m-114.84,0-.6,0a14.79,14.79,0,0,0-3.9.82q-.64.22-1.26.51a14.71,14.71,0,0,0-8.49,13.33v85.47a14.71,14.71,0,0,0,8.49,13.32c.41.19.83.36,1.26.52a15.19,15.19,0,0,0,3.9.81l.6,0c0-.15,0-.29,0-.44V214a13.72,13.72,0,0,1-5.08-1.15,11,11,0,0,1-1.19-.59,13.82,13.82,0,0,1-7.08-12V114.74a13.82,13.82,0,0,1,7.08-12.06,13.16,13.16,0,0,1,1.19-.59,13.72,13.72,0,0,1,5.08-1.15v-.45c0-.15,0-.29,0-.44" transform="translate(-84.53 -72)"/><path class="cls-3" d="M212.74,85.8H127.27a14.7,14.7,0,0,0-13.33,8.49q-.28.61-.51,1.26a14.79,14.79,0,0,0-.82,3.9l0,.6c0,.15,0,.29,0,.44v114c0,.15,0,.29,0,.44l0,.6a14.88,14.88,0,0,0,.82,3.9q.22.65.51,1.26a14.71,14.71,0,0,0,13.33,8.49h85.47a14.71,14.71,0,0,0,13.32-8.49c.19-.41.36-.83.52-1.26a14.87,14.87,0,0,0,.81-3.9l0-.6c0-.15,0-.29,0-.44h-.89c0,.15,0,.3,0,.45a13.72,13.72,0,0,1-1.15,5.08,13.16,13.16,0,0,1-.59,1.19,13.82,13.82,0,0,1-12,7.08H127.27a13.82,13.82,0,0,1-12.06-7.08,13.16,13.16,0,0,1-.59-1.19,13.72,13.72,0,0,1-1.15-5.08V100A13.72,13.72,0,0,1,114.62,95a13.16,13.16,0,0,1,.59-1.19,13.82,13.82,0,0,1,12.06-7.08h85.47a13.82,13.82,0,0,1,12,7.08,13.16,13.16,0,0,1,.59,1.19,13.72,13.72,0,0,1,1.15,5.08c0,.15,0,.3,0,.45v114h.89v-114c0-.15,0-.29,0-.44l0-.6a15.19,15.19,0,0,0-.81-3.9c-.16-.43-.33-.85-.52-1.26a14.69,14.69,0,0,0-13.32-8.49" transform="translate(-84.53 -72)"/></g><path class="cls-3" d="M255.47,72H84.53V242.94H255.47Zm-.89.89h0V242.05H85.42V72.89H254.58Z" transform="translate(-84.53 -72)"/><g class="cls-2"><path class="cls-3" d="M170.45,320.89h-.89V333.8h.89Zm-.45,13.8h-.44v6.23h.89v-6.23H170m.45,7.12h-.89V348h.89Zm0,7.12h-.89v20.49h.89ZM170,370.3h-.44v6.22h.89v-6.22H170m.45,7.13h-.89v27l.44.44.45-.44ZM170,406.1l-.44.44v27h.89v-27Zm.45,28.31h-.89v6.22h.89Zm-.89,7.12V462h.89V441.53h-.89m0,27.6h.89V462.9h-.89Zm.89.89h-.89v6.23h.89Zm0,7.12h-.89v12.91h.89Z" transform="translate(-84.53 -72)"/><path class="cls-3" d="M254.58,405H241.67v.89h12.91Zm-13.8,0h-6.23v.89h6.23V405m-7.12,0h-6.23v.89h6.23Zm-7.12,0H206.05c0,.14,0,.29,0,.44s0,.3,0,.45h20.49Zm-21.38,0h-6.22v.89h6.22c0-.15,0-.3,0-.45s0-.3,0-.44M198,405h-27l-.44.44.44.45h27Zm-29.11,0H142v.89h27l.44-.45Zm-27.87,0h-6.22c0,.14,0,.29,0,.44s0,.3,0,.45h6.22Zm-7.12,0H113.46v.89h20.48V405m-21.37,0h-6.23v.89h6.23Zm-7.12,0H99.22v.89h6.23Zm-7.12,0H85.42v.89H98.33V405Z" transform="translate(-84.53 -72)"/><path class="cls-3" d="M254.58,376.54H241.67v.89h12.91Zm-13.8,0H235.6c.13.29.26.59.38.89h4.8Zm-6.16,0h-.07v.89H235c-.12-.3-.25-.6-.39-.89m-1,0h-6.23v.89h6.23Zm-7.12,0h-27l-.64.62v.27h27.61Zm-28.5,0h-6.52c.39.28.77.58,1.15.89h4.74l.63-.63Zm-8,0H150c-.42.28-.83.58-1.23.89h42.44c-.4-.31-.81-.61-1.23-.89m-41.51,0H142v.26l.63.63h4.75c.37-.31.75-.61,1.14-.89m-8,0h-27v.89h27.61v-.27Zm-27.86,0h-6.23v.89h6.23Zm-7.12,0h-.07c-.14.29-.27.59-.4.89h.47Zm-1,0H99.22v.89H104c.12-.3.25-.6.38-.89m-6.07,0H85.42v.89H98.33Z" transform="translate(-84.53 -72)"/><path class="cls-3" d="M254.58,433.51H241.67v.89h12.91Zm-13.8,0H236c-.12.3-.25.6-.38.9h5.18Zm-5.77,0h-.46v.9h.07q.21-.45.39-.9m-1.35,0h-6.23v.89h6.23Zm-7.12,0H198.93v.27l.64.63h27Zm-29.13,0h-4.75q-.56.47-1.14.9H198v-.26Zm-6.19,0H148.78q.6.47,1.23.9h40q.63-.44,1.23-.9m-43.88,0h-4.75l-.63.64v.26h6.52q-.58-.44-1.14-.9m-6.27,0H113.46v.9h27l.64-.63Zm-28.5,0h-6.23v.89h6.23Zm-7.12,0H105c.13.3.26.6.4.9h.07Zm-1.43,0h-4.8v.9h5.18c-.13-.3-.26-.6-.38-.9m-5.69,0H85.42v.89H98.33Z" transform="translate(-84.53 -72)"/><path class="cls-3" d="M198.93,320.89H198V333.8h.89Zm0,13.8H198v4.8l.89.38Zm-.89,5.76v.47h.89v-.07l-.89-.4m.89,1.36H198V348h.89Zm0,7.12H198V376.8l.89-.9Zm0,28.23-.89.89v4.75c.31.38.61.76.89,1.15v-6.79Zm-.89,7.09v42.44c.31-.4.61-.81.89-1.23v-40c-.28-.42-.58-.83-.89-1.23m.89,42.74c-.28.39-.58.77-.89,1.14v4.76l.89.89V427Zm-.89,7.16V462h.89V435Zm0,35h.89V462.9H198Zm.89.89H198v.47l.89-.4Zm0,1.05-.89.38v4.8h.89Zm0,6.07H198v12.91h.89Z" transform="translate(-84.53 -72)"/><path class="cls-3" d="M142,320.89h-.89V333.8H142Zm0,13.8h-.89v5.18l.89-.38Zm0,5.76-.89.4v.07H142Zm0,1.36h-.89V348H142Zm0,7.12h-.89v27l.89.9V348.93Zm-.89,28.23V384c.28-.39.58-.77.89-1.15v-4.75Zm.89,7.09c-.31.4-.61.81-.89,1.23v40c.28.42.58.83.89,1.23V384.25ZM141.07,427v6.79l.89-.89v-4.76c-.31-.37-.61-.75-.89-1.14m.89,7.16-.89.89v27H142V434.15Zm-.89,35H142V462.9h-.89Zm.89.89h-.89v.07l.89.4Zm-.89,1.05v5.18H142v-4.79l-.89-.39m.89,6.07h-.89v12.91H142Z" transform="translate(-84.53 -72)"/><path class="cls-3" d="M254.58,320.89H254l-24,24,.63.63,24-24ZM229.3,345.54l-1.91,1.91,0,.6.6,0,1.91-1.91-.31-.31-.32-.32m-2.76,3.4h-.63l-5.54,5.53.63.63,5.54-5.53Zm-6.8,6.16-20.8,20.81-.9.89-.62.63-2.24,2.23.63.63,2.23-2.23.9-.89.62-.63,20.81-20.81-.31-.32-.32-.31m-25.19,25.19-24.1,24.11-.45.44.63.63.44-.44,24.11-24.11-.31-.32-.32-.31m-25.18,25.18-.44.45L144.82,430l.31.32.32.31,24.1-24.1.45-.45Zm-25.18,25.18L142,432.89l-.9.89-.62.63-20.81,20.8.31.32.32.31,20.8-20.8.9-.89.62-.63,2.24-2.24-.63-.63M119,455.84l-5.54,5.54V462h.63l5.54-5.54-.63-.63m-7,7-1.91,1.91.31.32.32.31,1.91-1.91,0-.6-.6,0m-2.54,2.54-24,24v.63h.63l24-24-.63-.63" transform="translate(-84.53 -72)"/><path class="cls-3" d="M86.05,320.89h-.63v.63l24,24,.63-.63Zm24.65,24.65-.32.32-.31.31,1.91,1.91.6,0,0-.6Zm3.39,3.4h-.62v.63L119,355.1l.63-.63Zm6.17,6.16-.32.31-.31.32,20.81,20.81.62.63.9.89,2.23,2.23.63-.63-2.24-2.23-.62-.63-.9-.89Zm25.19,25.19-.32.31-.31.32L168.93,405l.44.44.63.63.45.45,24.1,24.1.32-.31.31-.32-24.11-24.1-.44-.45-.63-.63-.45-.44Zm50.36,50.36-.63.63,2.24,2.24.63.63.89.89,20.8,20.8.32-.31.31-.32-20.81-20.8-.62-.63-.89-.89ZM221,455.84l-.63.63,5.54,5.54h.63v-.63Zm7,7-.6,0,0,.6,1.91,1.91.32-.31.31-.32Zm2.54,2.54-.63.63,24,24h.63v-.63Z" transform="translate(-84.53 -72)"/><path class="cls-3" d="M170,369.41h-.45a35.87,35.87,0,0,0-21.07,7.11c-.39.29-.77.59-1.15.9-.87.7-1.71,1.45-2.51,2.23l-.63.63c-.78.8-1.53,1.64-2.24,2.51-.3.38-.6.76-.89,1.15A35.94,35.94,0,0,0,133.94,405v.9A35.94,35.94,0,0,0,141.06,427c.29.39.59.77.89,1.14.71.88,1.46,1.72,2.24,2.52l.63.63c.8.78,1.64,1.53,2.52,2.24.37.3.75.6,1.14.89a35.94,35.94,0,0,0,21.07,7.12h.89a36,36,0,0,0,21.08-7.12c.39-.29.77-.59,1.14-.89.88-.71,1.72-1.46,2.52-2.24l.63-.63a33.44,33.44,0,0,0,2.23-2.52c.31-.37.61-.75.89-1.14a35.81,35.81,0,0,0,7.12-21.07c0-.15,0-.3,0-.45s0-.3,0-.45A35.81,35.81,0,0,0,198.93,384c-.28-.39-.58-.77-.89-1.15-.7-.87-1.45-1.71-2.23-2.51l-.63-.63c-.8-.78-1.64-1.53-2.51-2.23-.38-.31-.76-.61-1.15-.9a36,36,0,0,0-21.08-7.12H170m-.45.9h.89A34.91,34.91,0,0,1,190,376.53q.63.44,1.23.9a34.87,34.87,0,0,1,3.33,2.86l.32.31.31.32a34.87,34.87,0,0,1,2.86,3.33c.31.4.61.81.89,1.23A34.91,34.91,0,0,1,205.16,405c0,.15,0,.3,0,.45s0,.3,0,.45a34.91,34.91,0,0,1-6.23,19.54c-.28.42-.58.83-.89,1.23a34.87,34.87,0,0,1-2.86,3.33l-.31.32-.32.31a36.47,36.47,0,0,1-3.33,2.87c-.4.3-.81.6-1.23.89a34.91,34.91,0,0,1-19.55,6.22h-.89A35,35,0,0,1,150,434.41c-.42-.29-.83-.59-1.23-.89a36.47,36.47,0,0,1-3.33-2.87l-.32-.31-.31-.32a36.47,36.47,0,0,1-2.87-3.33c-.3-.4-.6-.81-.89-1.23a35.07,35.07,0,0,1-6.23-19.54V405a35.07,35.07,0,0,1,6.23-19.54c.29-.42.59-.83.89-1.23a36.47,36.47,0,0,1,2.87-3.33l.31-.32.32-.31a34.87,34.87,0,0,1,3.33-2.86q.6-.46,1.23-.9a35,35,0,0,1,19.54-6.22" transform="translate(-84.53 -72)"/><path class="cls-4" d="M181.34,334.69H158.66a71.19,71.19,0,0,0-16.71,4.8l-.89.38c-.76.34-1.52.69-2.27,1.05h2.1l.17-.07.89-.4a70.68,70.68,0,0,1,27.6-5.76h.89a70.44,70.44,0,0,1,27.6,5.77c.3.12.6.25.89.39l.17.07h2.11q-1.12-.54-2.28-1.05l-.89-.38a71,71,0,0,0-16.7-4.8M203,341.81h-2a70.48,70.48,0,0,1,10.41,6.24h1.5a71.13,71.13,0,0,0-9.93-6.24m-64,0h-2a71.13,71.13,0,0,0-9.93,6.24h1.5A70.48,70.48,0,0,1,139,341.81m75.08,7.13h-1.47a68.63,68.63,0,0,1,7.13,6.16l.32.31.31.32a68.63,68.63,0,0,1,6.16,7.13v-1.47A71.69,71.69,0,0,0,221,355.1l-.63-.63a71.69,71.69,0,0,0-6.29-5.53m-86.7,0h-1.46a70.27,70.27,0,0,0-6.29,5.53l-.63.63a73.49,73.49,0,0,0-5.54,6.29v1.47a69.94,69.94,0,0,1,6.17-7.13l.31-.32.32-.31a69.57,69.57,0,0,1,7.12-6.16m-14.81,13.62a72,72,0,0,0-6.23,9.93v2a70.42,70.42,0,0,1,6.23-10.41Zm114.86,0v1.5a71.29,71.29,0,0,1,6.23,10.41v-2a72,72,0,0,0-6.23-9.93m-122,11.7q-.54,1.13-1,2.28c-.13.29-.26.59-.38.89a71,71,0,0,0-4.8,16.7V405a70.65,70.65,0,0,1,5.76-27.6c.13-.3.26-.6.4-.89,0-.06.05-.12.07-.17Zm129.1,0v2.11c0,.05,0,.11.07.17.14.29.27.59.39.89a70.47,70.47,0,0,1,5.77,27.6v.89a70.51,70.51,0,0,1-5.77,27.6c-.12.29-.25.59-.39.89l-.07.16v2.11c.36-.75.71-1.51,1-2.27l.38-.89a71.19,71.19,0,0,0,4.8-16.71V394.13a71,71,0,0,0-4.8-16.7c-.12-.3-.25-.6-.38-.89q-.51-1.16-1-2.28M99.22,405.47v11.34a71.19,71.19,0,0,0,4.8,16.71l.38.89c.34.76.69,1.52,1,2.27v-2.1c0-.06,0-.12-.07-.17-.14-.3-.27-.6-.4-.89a70.68,70.68,0,0,1-5.76-27.6v-.45m134.44,31a71.29,71.29,0,0,1-6.23,10.41v1.5a72,72,0,0,0,6.23-9.93Zm-127.32,0v2a72,72,0,0,0,6.23,9.93v-1.5a70.42,70.42,0,0,1-6.23-10.41m120.19,11.61a68.63,68.63,0,0,1-6.16,7.13l-.31.32-.32.31a69.94,69.94,0,0,1-7.13,6.17h1.47a73.49,73.49,0,0,0,6.29-5.54l.63-.63a71.69,71.69,0,0,0,5.53-6.29Zm-113.07,0v1.46a72,72,0,0,0,5.54,6.29l.63.63a72,72,0,0,0,6.29,5.54h1.46a70.92,70.92,0,0,1-7.12-6.17l-.32-.31-.31-.32a70.92,70.92,0,0,1-6.17-7.12m13.63,14.81a72,72,0,0,0,9.93,6.23h2a70.42,70.42,0,0,1-10.41-6.23Zm84.32,0A70.42,70.42,0,0,1,201,469.13h2a72,72,0,0,0,9.93-6.23ZM201.21,470H199.1l-.17.07-.89.4a70.61,70.61,0,0,1-27.6,5.76h10.9a70.5,70.5,0,0,0,16.7-4.8l.89-.38q1.15-.51,2.28-1.05m-60.32,0h-2.1c.75.36,1.51.71,2.27,1.05l.89.38a70.71,70.71,0,0,0,16.71,4.8h10.89a70.68,70.68,0,0,1-27.6-5.76l-.89-.4-.17-.07" transform="translate(-84.53 -72)"/><path class="cls-3" d="M219.86,340.92H120.14a14.63,14.63,0,0,0-4.93.85,13.16,13.16,0,0,0-.59,1.19,13.74,13.74,0,0,1,5.52-1.15h99.72a13.74,13.74,0,0,1,5.52,1.15,13.16,13.16,0,0,0-.59-1.19,14.63,14.63,0,0,0-4.93-.85m6.2,1.37q.28.61.51,1.26a14.58,14.58,0,0,1,2.73,2l.32.31.31.32a14.58,14.58,0,0,1,2,2.73q.65.23,1.26.51a15.09,15.09,0,0,0-2.62-3.87l-.63-.63a15.09,15.09,0,0,0-3.87-2.62m-112.12,0a15.09,15.09,0,0,0-3.87,2.62l-.63.63a15.09,15.09,0,0,0-2.62,3.87q.62-.29,1.26-.51a14.15,14.15,0,0,1,2-2.73l.31-.32.32-.31a14.84,14.84,0,0,1,2.72-2c.16-.43.33-.85.52-1.26m118.57,7.8a13.74,13.74,0,0,1,1.15,5.52v99.72a13.74,13.74,0,0,1-1.15,5.52,11,11,0,0,0,1.19-.59,14.63,14.63,0,0,0,.85-4.93V355.61a14.63,14.63,0,0,0-.85-4.93,13.16,13.16,0,0,0-1.19-.59m-125,0a13.16,13.16,0,0,0-1.19.59,14.63,14.63,0,0,0-.85,4.93v99.72a14.63,14.63,0,0,0,.85,4.93,11,11,0,0,0,1.19.59,13.74,13.74,0,0,1-1.15-5.52V355.61a13.74,13.74,0,0,1,1.15-5.52m-.67,111.44a15.09,15.09,0,0,0,2.62,3.87l.63.63a14.59,14.59,0,0,0,3.87,2.62c-.19-.41-.36-.83-.52-1.26a14,14,0,0,1-2.72-2l-.32-.31-.31-.32a14.39,14.39,0,0,1-2-2.72c-.43-.16-.85-.33-1.26-.52m126.36,0c-.41.19-.83.36-1.26.52a14.84,14.84,0,0,1-2,2.72l-.31.32-.32.31a13.74,13.74,0,0,1-2.73,2q-.23.64-.51,1.26a14.59,14.59,0,0,0,3.87-2.62l.63-.63a15.09,15.09,0,0,0,2.62-3.87M114.62,468a13.16,13.16,0,0,0,.59,1.19,14.63,14.63,0,0,0,4.93.85h99.72a14.63,14.63,0,0,0,4.93-.85,13.16,13.16,0,0,0,.59-1.19,13.74,13.74,0,0,1-5.52,1.15H120.14a13.74,13.74,0,0,1-5.52-1.15" transform="translate(-84.53 -72)"/><path class="cls-3" d="M226.53,348.05H113.47c0,.14,0,.29,0,.44v.45H226.54v-.45c0-.15,0-.3,0-.44m.89,0c0,.15,0,.29,0,.44v.45a13.72,13.72,0,0,1,5.08,1.15,13.16,13.16,0,0,1,1.19.59,13.82,13.82,0,0,1,7.08,12.06v85.47a13.82,13.82,0,0,1-7.08,12.05,11,11,0,0,1-1.19.59,13.72,13.72,0,0,1-5.08,1.15v.45h-.89V462H113.46v.44c0,.15,0,.3,0,.45H226.53c0-.15,0-.3,0-.45h.89c0,.15,0,.29,0,.44l.6,0a14.87,14.87,0,0,0,3.9-.81c.43-.16.85-.33,1.26-.52a14.71,14.71,0,0,0,8.49-13.32V362.74a14.71,14.71,0,0,0-8.49-13.33q-.62-.29-1.26-.51a14.88,14.88,0,0,0-3.9-.82l-.6,0m-114.84,0-.6,0a14.79,14.79,0,0,0-3.9.82q-.64.23-1.26.51a14.71,14.71,0,0,0-8.49,13.33v85.47a14.71,14.71,0,0,0,8.49,13.32c.41.19.83.36,1.26.52a15.19,15.19,0,0,0,3.9.81l.6,0c0-.15,0-.29,0-.44V462a13.72,13.72,0,0,1-5.08-1.15,11,11,0,0,1-1.19-.59,13.82,13.82,0,0,1-7.08-12.05V362.74a13.82,13.82,0,0,1,7.08-12.06,13.16,13.16,0,0,1,1.19-.59,13.72,13.72,0,0,1,5.08-1.15v-.45c0-.15,0-.29,0-.44" transform="translate(-84.53 -72)"/><path class="cls-3" d="M212.74,333.8H127.27a14.7,14.7,0,0,0-13.33,8.49q-.28.61-.51,1.26a14.79,14.79,0,0,0-.82,3.9l0,.6c0,.15,0,.29,0,.44v114c0,.15,0,.29,0,.44l0,.6a14.88,14.88,0,0,0,.82,3.9q.22.64.51,1.26a14.71,14.71,0,0,0,13.33,8.49h85.47a14.71,14.71,0,0,0,13.32-8.49c.19-.41.36-.83.52-1.26a14.87,14.87,0,0,0,.81-3.9l0-.6c0-.15,0-.29,0-.44h-.89c0,.15,0,.3,0,.45a13.72,13.72,0,0,1-1.15,5.08,13.16,13.16,0,0,1-.59,1.19,13.82,13.82,0,0,1-12,7.08H127.27a13.82,13.82,0,0,1-12.06-7.08,13.16,13.16,0,0,1-.59-1.19,13.72,13.72,0,0,1-1.15-5.08V348a13.72,13.72,0,0,1,1.15-5.08,13.16,13.16,0,0,1,.59-1.19,13.82,13.82,0,0,1,12.06-7.08h85.47a13.82,13.82,0,0,1,12,7.08,13.16,13.16,0,0,1,.59,1.19,13.72,13.72,0,0,1,1.15,5.08c0,.15,0,.3,0,.45v114h.89v-114c0-.15,0-.29,0-.44l0-.6a15.19,15.19,0,0,0-.81-3.9c-.16-.43-.33-.85-.52-1.26a14.69,14.69,0,0,0-13.32-8.49" transform="translate(-84.53 -72)"/></g><path class="cls-3" d="M255.47,320H84.53V490.94H255.47Zm-.89.89h0V490.05H85.42V320.89H254.58Z" transform="translate(-84.53 -72)"/><g class="cls-2"><path class="cls-3" d="M430.45,72.89h-.89V85.8h.89ZM430,86.69h-.44v6.23h.89V86.69H430m.45,7.12h-.89V100h.89Zm0,7.12h-.89v20.49h.89ZM430,122.3h-.44v6.22h.89v-6.22H430m.45,7.13h-.89v27l.44.44.45-.44ZM430,158.1l-.44.44v27h.89v-27Zm.45,28.31h-.89v6.22h.89Zm-.89,7.12V214h.89V193.53h-.89m0,27.6h.89V214.9h-.89Zm.89.89h-.89v6.23h.89Zm0,7.12h-.89v12.91h.89Z" transform="translate(-84.53 -72)"/><path class="cls-3" d="M514.58,157H501.67v.89h12.91Zm-13.8,0h-6.23v.89h6.23V157m-7.12,0h-6.23v.89h6.23Zm-7.12,0H466.05c0,.14,0,.29,0,.44s0,.3,0,.45h20.49Zm-21.38,0h-6.22v.89h6.22c0-.15,0-.3,0-.45s0-.3,0-.44M458,157h-27l-.44.44.44.45h27Zm-29.11,0H402v.89h27l.44-.45Zm-27.87,0h-6.22c0,.14,0,.29,0,.44s0,.3,0,.45h6.22Zm-7.12,0H373.46v.89h20.48V157m-21.37,0h-6.23v.89h6.23Zm-7.12,0h-6.23v.89h6.23Zm-7.12,0H345.42v.89h12.91V157Z" transform="translate(-84.53 -72)"/><path class="cls-3" d="M514.58,128.54H501.67v.89h12.91Zm-13.8,0H495.6c.13.29.26.59.38.88h4.8Zm-6.16,0h-.07v.88H495c-.13-.29-.26-.59-.4-.88m-1,0h-6.23v.89h6.23Zm-7.12,0h-27l-.64.63v.25h27.61Zm-28.49,0h-6.53c.39.28.77.58,1.15.88h4.75l.63-.62Zm-8.06,0H410c-.42.28-.83.58-1.23.88h42.44c-.4-.3-.81-.6-1.23-.88m-41.51,0H402v.26l.63.62h4.75c.38-.3.76-.6,1.15-.88m-8.05,0h-27v.88h27.61v-.25Zm-27.85,0h-6.24v.89h6.24Zm-7.13,0h-.07c-.14.29-.27.59-.4.88h.47Zm-1.05,0h-5.18v.88H364c.12-.29.25-.59.38-.88m-6.07,0H345.42v.89h12.91Z" transform="translate(-84.53 -72)"/><path class="cls-3" d="M514.58,185.52H501.67v.89h12.91Zm-13.8,0H496l-.38.89h5.18Zm-5.76,0h-.47v.89h.07c.14-.3.27-.6.4-.89m-1.36,0h-6.23v.89h6.23Zm-7.12,0H458.93v.26l.64.63h27Zm-29.12,0h-4.75c-.38.3-.76.6-1.15.89h6.53v-.27Zm-6.2,0H408.78c.4.3.81.6,1.23.89h40c.42-.29.83-.59,1.23-.89m-43.88,0h-4.76l-.63.62v.27h6.53c-.39-.29-.77-.59-1.14-.89m-6.27,0H373.46v.89h27l.64-.63Zm-28.49,0h-6.24v.89h6.24Zm-7.13,0H365c.13.29.26.59.4.89h.07Zm-1.43,0h-4.8v.89h5.18l-.38-.89m-5.69,0H345.42v.89h12.91Z" transform="translate(-84.53 -72)"/><path class="cls-3" d="M458.93,72.89H458V85.8h.89Zm0,13.8h-.88v4.8l.88.38Zm-.88,5.76v.47h.88v-.07l-.88-.4m.88,1.36H458V100h.89Zm0,7.12h-.88V128.8l.88-.9Zm0,28.24-.88.88v4.75c.3.38.6.76.88,1.15v-6.78Zm-.88,7.08v42.44c.3-.4.6-.81.88-1.23v-40c-.28-.42-.58-.83-.88-1.23m.88,42.74c-.28.39-.58.77-.88,1.15v4.75l.88.89V179Zm-.88,7.15V214h.88V187Zm0,35h.89V214.9h-.89Zm.88.89h-.88v.47l.88-.4Zm0,1-.88.38v4.8h.88Zm0,6.07H458v12.91h.89Z" transform="translate(-84.53 -72)"/><path class="cls-3" d="M402,72.89h-.89V85.8H402Zm0,13.8h-.88v5.18l.88-.38Zm0,5.76-.88.4v.07H402Zm0,1.36h-.89V100H402Zm0,7.12h-.88v27l.88.9V100.93Zm-.88,28.24V136c.28-.39.58-.77.88-1.15v-4.75Zm.88,7.08c-.3.4-.6.81-.88,1.23v40c.28.42.58.83.88,1.23V136.25ZM401.07,179v6.79l.88-.89v-4.76c-.3-.37-.6-.75-.88-1.14m.88,7.15-.88.9v27H402V186.14Zm-.88,35H402V214.9h-.89Zm.88.89h-.88v.07l.88.4Zm-.88,1v5.18H402v-4.8l-.88-.38m.88,6.07h-.89v12.91H402Z" transform="translate(-84.53 -72)"/><path class="cls-3" d="M514.58,72.89H514l-24,24,.63.63,24-24ZM489.3,97.54l-1.91,1.91,0,.6.6,0,1.91-1.91-.31-.31-.32-.32m-2.76,3.4h-.63l-5.54,5.53.63.63,5.54-5.53Zm-6.8,6.16-20.8,20.81-.9.89-.62.63-2.24,2.23.63.63,2.23-2.23.9-.89.62-.63,20.81-20.81-.31-.32-.32-.31m-25.19,25.19-24.1,24.11-.45.44.63.63.44-.44,24.11-24.11-.31-.32-.32-.31m-25.18,25.18-.44.45L404.82,182l.31.32.32.31,24.1-24.1.45-.45Zm-25.18,25.18L402,184.89l-.9.89-.62.63-20.81,20.8.31.32.32.31,20.8-20.8.9-.89.62-.63,2.24-2.24-.63-.63M379,207.84l-5.54,5.54V214h.63l5.54-5.54-.63-.63m-7,7-1.91,1.91.31.32.32.31,1.91-1.91,0-.6-.6,0m-2.54,2.54-24,24v.63h.63l24-24-.63-.63" transform="translate(-84.53 -72)"/><path class="cls-3" d="M346.05,72.89h-.63v.63l24,24,.63-.63ZM370.7,97.54l-.32.32-.31.31,1.91,1.91.6,0,0-.6Zm3.39,3.4h-.62v.63L379,107.1l.63-.63Zm6.17,6.16-.32.31-.31.32,20.81,20.81.62.63.9.89,2.23,2.23.63-.63-2.24-2.23-.62-.63-.9-.89Zm25.19,25.19-.32.31-.31.32L428.93,157l.44.44.63.63.45.45,24.1,24.1.32-.31.31-.32-24.11-24.1-.44-.45-.63-.63-.45-.44Zm50.36,50.36-.63.63,2.24,2.24.63.63.89.89,20.8,20.8.32-.31.31-.32-20.81-20.8-.62-.63-.89-.89ZM481,207.84l-.63.63,5.54,5.54h.63v-.63Zm7,7-.6,0,0,.6,1.91,1.91.32-.31.31-.32Zm2.54,2.54-.63.63,24,24h.63v-.63Z" transform="translate(-84.53 -72)"/><path class="cls-3" d="M430,121.41h-.45a35.87,35.87,0,0,0-21.07,7.11c-.39.29-.77.59-1.15.9-.87.7-1.71,1.45-2.51,2.23l-.63.63c-.78.8-1.53,1.64-2.24,2.51-.3.38-.6.76-.89,1.15A36,36,0,0,0,393.94,157v.89A35.94,35.94,0,0,0,401.06,179c.29.39.59.77.89,1.14.71.88,1.46,1.72,2.24,2.52l.63.63c.8.78,1.64,1.53,2.52,2.24.37.3.75.6,1.14.89a35.94,35.94,0,0,0,21.07,7.12h.89a36,36,0,0,0,21.08-7.12c.39-.29.77-.59,1.14-.89.88-.71,1.72-1.46,2.52-2.24l.63-.63a33.44,33.44,0,0,0,2.23-2.52c.31-.37.61-.75.89-1.14a35.81,35.81,0,0,0,7.12-21.07c0-.15,0-.3,0-.45s0-.3,0-.44A35.81,35.81,0,0,0,458.93,136c-.28-.39-.58-.77-.89-1.15-.7-.87-1.45-1.71-2.23-2.51l-.63-.63c-.8-.78-1.64-1.53-2.51-2.23-.38-.31-.76-.61-1.15-.9a36,36,0,0,0-21.08-7.12H430m-.45.9h.89A34.91,34.91,0,0,1,450,128.53q.63.43,1.23.9a34.87,34.87,0,0,1,3.33,2.86l.32.31.31.32a34.87,34.87,0,0,1,2.86,3.33c.31.4.61.81.89,1.23A34.92,34.92,0,0,1,465.16,157c0,.14,0,.29,0,.44s0,.3,0,.45a34.91,34.91,0,0,1-6.23,19.54c-.28.42-.58.83-.89,1.23a34.87,34.87,0,0,1-2.86,3.33l-.31.32-.32.31a36.47,36.47,0,0,1-3.33,2.87c-.4.3-.81.6-1.23.89a34.91,34.91,0,0,1-19.55,6.22h-.89A35,35,0,0,1,410,186.41c-.42-.29-.83-.59-1.23-.89a36.47,36.47,0,0,1-3.33-2.87l-.32-.31-.31-.32a36.47,36.47,0,0,1-2.87-3.33c-.3-.4-.6-.81-.89-1.23a35.07,35.07,0,0,1-6.23-19.54V157a35.08,35.08,0,0,1,6.23-19.55c.29-.42.59-.83.89-1.23a36.47,36.47,0,0,1,2.87-3.33l.31-.32.32-.31a34.87,34.87,0,0,1,3.33-2.86q.6-.47,1.23-.9a35,35,0,0,1,19.54-6.22" transform="translate(-84.53 -72)"/><path class="cls-3" d="M441.34,86.69H418.66A71.19,71.19,0,0,0,402,91.49l-.89.38c-.76.34-1.52.69-2.27,1h2.1l.17-.07.89-.4a70.68,70.68,0,0,1,27.6-5.76h.89A70.44,70.44,0,0,1,458,92.46c.3.12.6.25.89.39l.17.07h2.11q-1.12-.54-2.28-1l-.89-.38a71,71,0,0,0-16.7-4.8M463,93.81h-2a70.48,70.48,0,0,1,10.41,6.24h1.5A71.13,71.13,0,0,0,463,93.81m-64,0h-2a71.13,71.13,0,0,0-9.93,6.24h1.5A70.48,70.48,0,0,1,399,93.81m75.08,7.13h-1.47a68.63,68.63,0,0,1,7.13,6.16l.32.31.31.32a68.63,68.63,0,0,1,6.16,7.13v-1.47A71.69,71.69,0,0,0,481,107.1l-.63-.63a71.69,71.69,0,0,0-6.29-5.53m-86.7,0h-1.46a70.27,70.27,0,0,0-6.29,5.53l-.63.63a73.49,73.49,0,0,0-5.54,6.29v1.47a69.94,69.94,0,0,1,6.17-7.13l.31-.32.32-.31a69.57,69.57,0,0,1,7.12-6.16m-14.81,13.62a72,72,0,0,0-6.23,9.93v2a70.42,70.42,0,0,1,6.23-10.41Zm114.86,0v1.5a71.29,71.29,0,0,1,6.23,10.41v-2a72,72,0,0,0-6.23-9.93m-122,11.7q-.54,1.13-1.05,2.28c-.13.29-.26.59-.38.89a71,71,0,0,0-4.8,16.7V157a70.65,70.65,0,0,1,5.76-27.6c.13-.3.26-.6.4-.89,0-.06.05-.12.07-.17Zm129.1,0v2.11s.05.11.07.17c.14.29.27.59.39.89a70.47,70.47,0,0,1,5.77,27.6v.89a70.51,70.51,0,0,1-5.77,27.6c-.12.29-.25.59-.39.89l-.07.16v2.11c.36-.75.71-1.51,1.05-2.27l.38-.89a71.19,71.19,0,0,0,4.8-16.71V146.13a71,71,0,0,0-4.8-16.7c-.12-.3-.25-.6-.38-.89q-.51-1.16-1.05-2.28M359.22,157.47v11.34a71.19,71.19,0,0,0,4.8,16.71l.38.89c.34.76.69,1.52,1.05,2.27v-2.1c0-.06-.05-.12-.07-.17-.14-.3-.27-.6-.4-.89a70.68,70.68,0,0,1-5.76-27.6v-.45m134.44,31a71.29,71.29,0,0,1-6.23,10.41v1.5a72,72,0,0,0,6.23-9.93Zm-127.32,0v2a72,72,0,0,0,6.23,9.93v-1.5a70.42,70.42,0,0,1-6.23-10.41m120.19,11.61a68.63,68.63,0,0,1-6.16,7.13l-.31.32-.32.31a69.94,69.94,0,0,1-7.13,6.17h1.47a73.49,73.49,0,0,0,6.29-5.54l.63-.63a71.69,71.69,0,0,0,5.53-6.29Zm-113.07,0v1.46a72,72,0,0,0,5.54,6.29l.63.63a72,72,0,0,0,6.29,5.54h1.46a70.92,70.92,0,0,1-7.12-6.17l-.32-.31-.31-.32a70.92,70.92,0,0,1-6.17-7.12m13.63,14.81a72,72,0,0,0,9.93,6.23h2a70.42,70.42,0,0,1-10.41-6.23Zm84.32,0A70.42,70.42,0,0,1,461,221.13h2a72,72,0,0,0,9.93-6.23ZM461.21,222H459.1l-.17.07-.89.4a70.61,70.61,0,0,1-27.6,5.76h10.9a70.5,70.5,0,0,0,16.7-4.8l.89-.38q1.15-.51,2.28-1m-60.32,0h-2.1c.75.36,1.51.71,2.27,1l.89.38a70.71,70.71,0,0,0,16.71,4.8h10.89a70.68,70.68,0,0,1-27.6-5.76l-.89-.4-.17-.07" transform="translate(-84.53 -72)"/><path class="cls-3" d="M479.86,92.92H380.14a14.63,14.63,0,0,0-4.93.85,13.16,13.16,0,0,0-.59,1.19,13.74,13.74,0,0,1,5.52-1.15h99.72A13.74,13.74,0,0,1,485.38,95a13.16,13.16,0,0,0-.59-1.19,14.63,14.63,0,0,0-4.93-.85m6.2,1.37q.29.61.51,1.26a14.58,14.58,0,0,1,2.73,2l.32.31.31.32a14.58,14.58,0,0,1,2,2.73q.65.22,1.26.51a15.09,15.09,0,0,0-2.62-3.87l-.63-.63a15.09,15.09,0,0,0-3.87-2.62m-112.12,0a15.09,15.09,0,0,0-3.87,2.62l-.63.63a15.09,15.09,0,0,0-2.62,3.87q.62-.28,1.26-.51a13.74,13.74,0,0,1,2-2.73l.31-.32.32-.31a14.84,14.84,0,0,1,2.72-2c.16-.43.33-.85.52-1.26m118.57,7.8a13.74,13.74,0,0,1,1.15,5.52v99.72a13.74,13.74,0,0,1-1.15,5.52,11,11,0,0,0,1.19-.59,14.63,14.63,0,0,0,.85-4.93V107.61a14.63,14.63,0,0,0-.85-4.93,13.16,13.16,0,0,0-1.19-.59m-125,0a13.16,13.16,0,0,0-1.19.59,14.63,14.63,0,0,0-.85,4.93v99.72a14.63,14.63,0,0,0,.85,4.93,11,11,0,0,0,1.19.59,13.74,13.74,0,0,1-1.15-5.52V107.61a13.74,13.74,0,0,1,1.15-5.52m-.67,111.44a15.09,15.09,0,0,0,2.62,3.87l.63.63a14.59,14.59,0,0,0,3.87,2.62c-.19-.41-.36-.83-.52-1.26a14,14,0,0,1-2.72-2l-.32-.31-.31-.32a14,14,0,0,1-2-2.72c-.43-.16-.85-.33-1.26-.52m126.36,0c-.41.19-.83.36-1.26.52a14.84,14.84,0,0,1-2,2.72l-.31.32-.32.31a13.74,13.74,0,0,1-2.73,2q-.22.65-.51,1.26a14.59,14.59,0,0,0,3.87-2.62l.63-.63a15.09,15.09,0,0,0,2.62-3.87M374.62,220a13.16,13.16,0,0,0,.59,1.19,14.63,14.63,0,0,0,4.93.85h99.72a14.63,14.63,0,0,0,4.93-.85,13.16,13.16,0,0,0,.59-1.19,13.74,13.74,0,0,1-5.52,1.15H380.14a13.74,13.74,0,0,1-5.52-1.15" transform="translate(-84.53 -72)"/><path class="cls-3" d="M486.53,100.05H373.47c0,.14,0,.29,0,.44v.45H486.53v-.89m.89,0v.89a13.72,13.72,0,0,1,5.09,1.15,13.16,13.16,0,0,1,1.19.59,13.82,13.82,0,0,1,7.08,12.06v85.47a13.82,13.82,0,0,1-7.08,12,11,11,0,0,1-1.19.59,13.72,13.72,0,0,1-5.09,1.15v.45h-.89V214H373.46v.44c0,.15,0,.3,0,.45H486.53v-.45h.89v.44l.6,0a14.87,14.87,0,0,0,3.9-.81c.43-.16.85-.33,1.26-.52a14.71,14.71,0,0,0,8.49-13.32V114.74a14.71,14.71,0,0,0-8.49-13.33q-.62-.28-1.26-.51a14.88,14.88,0,0,0-3.9-.82l-.6,0m-114.84,0-.6,0a14.79,14.79,0,0,0-3.9.82q-.65.22-1.26.51a14.7,14.7,0,0,0-8.49,13.33v85.47a14.69,14.69,0,0,0,8.49,13.32c.41.19.83.36,1.26.52a15.19,15.19,0,0,0,3.9.81l.6,0c0-.15,0-.29,0-.44V214a13.72,13.72,0,0,1-5.08-1.15,11,11,0,0,1-1.19-.59,13.82,13.82,0,0,1-7.08-12V114.74a13.82,13.82,0,0,1,7.08-12.06,13.16,13.16,0,0,1,1.19-.59,13.72,13.72,0,0,1,5.08-1.15v-.45c0-.15,0-.29,0-.44" transform="translate(-84.53 -72)"/><path class="cls-4" d="M472.74,85.8H387.27a14.7,14.7,0,0,0-13.33,8.49q-.29.61-.51,1.26a14.79,14.79,0,0,0-.82,3.9l0,.6c0,.15,0,.29,0,.44v114c0,.15,0,.29,0,.44l0,.6a14.88,14.88,0,0,0,.82,3.9q.22.65.51,1.26a14.71,14.71,0,0,0,13.33,8.49h85.47a14.71,14.71,0,0,0,13.32-8.49c.19-.41.36-.83.52-1.26a14.87,14.87,0,0,0,.81-3.9l0-.6c0-.15,0-.29,0-.44h-.89c0,.15,0,.3,0,.45a13.72,13.72,0,0,1-1.15,5.08,13.16,13.16,0,0,1-.59,1.19,13.82,13.82,0,0,1-12.05,7.08H387.27a13.82,13.82,0,0,1-12.06-7.08,13.16,13.16,0,0,1-.59-1.19,13.72,13.72,0,0,1-1.15-5.08V100A13.72,13.72,0,0,1,374.62,95a13.16,13.16,0,0,1,.59-1.19,13.82,13.82,0,0,1,12.06-7.08h85.47a13.82,13.82,0,0,1,12.05,7.08,13.16,13.16,0,0,1,.59,1.19,13.72,13.72,0,0,1,1.15,5.08c0,.15,0,.3,0,.45v114h.89v-114c0-.15,0-.29,0-.44l0-.6a15.19,15.19,0,0,0-.81-3.9c-.16-.43-.33-.85-.52-1.26a14.69,14.69,0,0,0-13.32-8.49" transform="translate(-84.53 -72)"/></g><path class="cls-3" d="M515.47,72H344.53V242.94H515.47Zm-.89.89h0V242.05H345.42V72.89H514.58Z" transform="translate(-84.53 -72)"/><g class="cls-2"><path class="cls-3" d="M430.45,320.89h-.89V333.8h.89Zm-.45,13.8h-.44v6.23h.89v-6.23H430m.45,7.12h-.89V348h.89Zm0,7.12h-.89v20.49h.89ZM430,370.3h-.44v6.22h.89v-6.22H430m.45,7.13h-.89v27l.44.44.45-.44ZM430,406.1l-.44.44v27h.89v-27Zm.45,28.31h-.89v6.22h.89Zm-.89,7.12V462h.89V441.53h-.89m0,27.6h.89V462.9h-.89Zm.89.89h-.89v6.23h.89Zm0,7.12h-.89v12.91h.89Z" transform="translate(-84.53 -72)"/><path class="cls-3" d="M514.58,405H501.67v.89h12.91Zm-13.8,0h-6.23v.89h6.23V405m-7.12,0h-6.23v.89h6.23Zm-7.12,0H466.05c0,.14,0,.29,0,.44s0,.3,0,.45h20.49Zm-21.38,0h-6.22v.89h6.22c0-.15,0-.3,0-.45s0-.3,0-.44M458,405h-27l-.44.44.44.45h27Zm-29.11,0H402v.89h27l.44-.45Zm-27.87,0h-6.22c0,.14,0,.29,0,.44s0,.3,0,.45h6.22Zm-7.12,0H373.46v.89h20.48V405m-21.37,0h-6.23v.89h6.23Zm-7.12,0h-6.23v.89h6.23Zm-7.12,0H345.42v.89h12.91V405Z" transform="translate(-84.53 -72)"/><path class="cls-3" d="M514.58,376.54H501.67v.89h12.91Zm-13.8,0H495.6c.13.29.26.59.38.89h4.8Zm-6.16,0h-.07v.89H495c-.13-.3-.26-.6-.4-.89m-1,0h-6.23v.89h6.23Zm-7.12,0h-27l-.64.62v.27h27.61Zm-28.49,0h-6.53c.39.28.77.58,1.15.89h4.75l.63-.63Zm-8.06,0H410c-.42.28-.83.58-1.23.89h42.44c-.4-.31-.81-.61-1.23-.89m-41.51,0H402v.26l.63.63h4.75c.38-.31.76-.61,1.15-.89m-8.05,0h-27v.89h27.61v-.27Zm-27.85,0h-6.24v.89h6.24Zm-7.13,0h-.07c-.14.29-.27.59-.4.89h.47Zm-1.05,0h-5.18v.89H364c.12-.3.25-.6.38-.89m-6.07,0H345.42v.89h12.91Z" transform="translate(-84.53 -72)"/><path class="cls-3" d="M514.58,433.51H501.67v.89h12.91Zm-13.8,0H496c-.12.3-.25.6-.38.9h5.18Zm-5.76,0h-.47v.9h.07c.14-.3.27-.6.4-.9m-1.36,0h-6.23v.89h6.23Zm-7.12,0H458.93v.27l.64.63h27Zm-29.12,0h-4.75c-.38.31-.76.61-1.15.9h6.53v-.26Zm-6.2,0H408.78q.6.47,1.23.9h40q.63-.44,1.23-.9m-43.88,0h-4.76l-.63.64v.26h6.53q-.59-.44-1.14-.9m-6.27,0H373.46v.9h27l.64-.63Zm-28.49,0h-6.24v.89h6.24Zm-7.13,0H365c.13.3.26.6.4.9h.07Zm-1.43,0h-4.8v.9h5.18c-.13-.3-.26-.6-.38-.9m-5.69,0H345.42v.89h12.91Z" transform="translate(-84.53 -72)"/><path class="cls-3" d="M458.93,320.89H458V333.8h.89Zm0,13.8h-.88v4.8l.88.38Zm-.88,5.76v.47h.88v-.07l-.88-.4m.88,1.36H458V348h.89Zm0,7.12h-.88V376.8l.88-.9Zm0,28.23-.88.89v4.75c.3.38.6.76.88,1.15v-6.79Zm-.88,7.09v42.44c.3-.4.6-.81.88-1.23v-40c-.28-.42-.58-.83-.88-1.23m.88,42.74c-.28.39-.58.77-.88,1.14v4.76l.88.89V427Zm-.88,7.16V462h.88V435Zm0,35h.89V462.9h-.89Zm.88.89h-.88v.47l.88-.4Zm0,1.05-.88.38v4.8h.88Zm0,6.07H458v12.91h.89Z" transform="translate(-84.53 -72)"/><path class="cls-3" d="M402,320.89h-.89V333.8H402Zm0,13.8h-.88v5.18l.88-.38Zm0,5.76-.88.4v.07H402Zm0,1.36h-.89V348H402Zm0,7.12h-.88v27l.88.9V348.93Zm-.88,28.23V384c.28-.39.58-.77.88-1.15v-4.75Zm.88,7.09c-.3.4-.6.81-.88,1.23v40c.28.42.58.83.88,1.23V384.25ZM401.07,427v6.79l.88-.89v-4.76c-.3-.37-.6-.75-.88-1.14m.88,7.16-.88.89v27H402V434.15Zm-.88,35H402V462.9h-.89Zm.88.89h-.88v.07l.88.4Zm-.88,1.05v5.18H402v-4.79l-.88-.39m.88,6.07h-.89v12.91H402Z" transform="translate(-84.53 -72)"/><path class="cls-3" d="M514.58,320.89H514l-24,24,.63.63,24-24ZM489.3,345.54l-1.91,1.91,0,.6.6,0,1.91-1.91-.31-.31-.32-.32m-2.76,3.4h-.63l-5.54,5.53.63.63,5.54-5.53Zm-6.8,6.16-20.8,20.81-.9.89-.62.63-2.24,2.23.63.63,2.23-2.23.9-.89.62-.63,20.81-20.81-.31-.32-.32-.31m-25.19,25.19-24.1,24.11-.45.44.63.63.44-.44,24.11-24.11-.31-.32-.32-.31m-25.18,25.18-.44.45L404.82,430l.31.32.32.31,24.1-24.1.45-.45Zm-25.18,25.18L402,432.89l-.9.89-.62.63-20.81,20.8.31.32.32.31,20.8-20.8.9-.89.62-.63,2.24-2.24-.63-.63M379,455.84l-5.54,5.54V462h.63l5.54-5.54-.63-.63m-7,7-1.91,1.91.31.32.32.31,1.91-1.91,0-.6-.6,0m-2.54,2.54-24,24v.63h.63l24-24-.63-.63" transform="translate(-84.53 -72)"/><path class="cls-3" d="M346.05,320.89h-.63v.63l24,24,.63-.63Zm24.65,24.65-.32.32-.31.31,1.91,1.91.6,0,0-.6Zm3.39,3.4h-.62v.63L379,355.1l.63-.63Zm6.17,6.16-.32.31-.31.32,20.81,20.81.62.63.9.89,2.23,2.23.63-.63-2.24-2.23-.62-.63-.9-.89Zm25.19,25.19-.32.31-.31.32L428.93,405l.44.44.63.63.45.45,24.1,24.1.32-.31.31-.32-24.11-24.1-.44-.45-.63-.63-.45-.44Zm50.36,50.36-.63.63,2.24,2.24.63.63.89.89,20.8,20.8.32-.31.31-.32-20.81-20.8-.62-.63-.89-.89ZM481,455.84l-.63.63,5.54,5.54h.63v-.63Zm7,7-.6,0,0,.6,1.91,1.91.32-.31.31-.32Zm2.54,2.54-.63.63,24,24h.63v-.63Z" transform="translate(-84.53 -72)"/><path class="cls-3" d="M430,369.41h-.45a35.87,35.87,0,0,0-21.07,7.11c-.39.29-.77.59-1.15.9-.87.7-1.71,1.45-2.51,2.23l-.63.63c-.78.8-1.53,1.64-2.24,2.51-.3.38-.6.76-.89,1.15A35.94,35.94,0,0,0,393.94,405v.9A35.94,35.94,0,0,0,401.06,427c.29.39.59.77.89,1.14.71.88,1.46,1.72,2.24,2.52l.63.63c.8.78,1.64,1.53,2.52,2.24.37.3.75.6,1.14.89a35.94,35.94,0,0,0,21.07,7.12h.89a36,36,0,0,0,21.08-7.12c.39-.29.77-.59,1.14-.89.88-.71,1.72-1.46,2.52-2.24l.63-.63a33.44,33.44,0,0,0,2.23-2.52c.31-.37.61-.75.89-1.14a35.81,35.81,0,0,0,7.12-21.07c0-.15,0-.3,0-.45s0-.3,0-.45A35.81,35.81,0,0,0,458.93,384c-.28-.39-.58-.77-.89-1.15-.7-.87-1.45-1.71-2.23-2.51l-.63-.63c-.8-.78-1.64-1.53-2.51-2.23-.38-.31-.76-.61-1.15-.9a36,36,0,0,0-21.08-7.12H430m-.45.9h.89A34.91,34.91,0,0,1,450,376.53q.63.44,1.23.9a34.87,34.87,0,0,1,3.33,2.86l.32.31.31.32a34.87,34.87,0,0,1,2.86,3.33c.31.4.61.81.89,1.23A34.91,34.91,0,0,1,465.16,405c0,.15,0,.3,0,.45s0,.3,0,.45a34.91,34.91,0,0,1-6.23,19.54c-.28.42-.58.83-.89,1.23a34.87,34.87,0,0,1-2.86,3.33l-.31.32-.32.31a36.47,36.47,0,0,1-3.33,2.87c-.4.3-.81.6-1.23.89a34.91,34.91,0,0,1-19.55,6.22h-.89A35,35,0,0,1,410,434.41c-.42-.29-.83-.59-1.23-.89a36.47,36.47,0,0,1-3.33-2.87l-.32-.31-.31-.32a36.47,36.47,0,0,1-2.87-3.33c-.3-.4-.6-.81-.89-1.23a35.07,35.07,0,0,1-6.23-19.54V405a35.07,35.07,0,0,1,6.23-19.54c.29-.42.59-.83.89-1.23a36.47,36.47,0,0,1,2.87-3.33l.31-.32.32-.31a34.87,34.87,0,0,1,3.33-2.86q.6-.46,1.23-.9a35,35,0,0,1,19.54-6.22" transform="translate(-84.53 -72)"/><path class="cls-3" d="M441.34,334.69H418.66a71.19,71.19,0,0,0-16.71,4.8l-.89.38c-.76.34-1.52.69-2.27,1.05h2.1l.17-.07.89-.4a70.68,70.68,0,0,1,27.6-5.76h.89a70.44,70.44,0,0,1,27.6,5.77c.3.12.6.25.89.39l.17.07h2.11q-1.12-.54-2.28-1.05l-.89-.38a71,71,0,0,0-16.7-4.8M463,341.81h-2a70.48,70.48,0,0,1,10.41,6.24h1.5a71.13,71.13,0,0,0-9.93-6.24m-64,0h-2a71.13,71.13,0,0,0-9.93,6.24h1.5A70.48,70.48,0,0,1,399,341.81m75.08,7.13h-1.47a68.63,68.63,0,0,1,7.13,6.16l.32.31.31.32a68.63,68.63,0,0,1,6.16,7.13v-1.47A71.69,71.69,0,0,0,481,355.1l-.63-.63a71.69,71.69,0,0,0-6.29-5.53m-86.7,0h-1.46a70.27,70.27,0,0,0-6.29,5.53l-.63.63a73.49,73.49,0,0,0-5.54,6.29v1.47a69.94,69.94,0,0,1,6.17-7.13l.31-.32.32-.31a69.57,69.57,0,0,1,7.12-6.16m-14.81,13.62a72,72,0,0,0-6.23,9.93v2a70.42,70.42,0,0,1,6.23-10.41Zm114.86,0v1.5a71.29,71.29,0,0,1,6.23,10.41v-2a72,72,0,0,0-6.23-9.93m-122,11.7q-.54,1.13-1.05,2.28c-.13.29-.26.59-.38.89a71,71,0,0,0-4.8,16.7V405a70.65,70.65,0,0,1,5.76-27.6c.13-.3.26-.6.4-.89,0-.06.05-.12.07-.17Zm129.1,0v2.11c0,.05.05.11.07.17.14.29.27.59.39.89a70.47,70.47,0,0,1,5.77,27.6v.89a70.51,70.51,0,0,1-5.77,27.6c-.12.29-.25.59-.39.89l-.07.16v2.11c.36-.75.71-1.51,1.05-2.27l.38-.89a71.19,71.19,0,0,0,4.8-16.71V394.13a71,71,0,0,0-4.8-16.7c-.12-.3-.25-.6-.38-.89q-.51-1.16-1.05-2.28M359.22,405.47v11.34a71.19,71.19,0,0,0,4.8,16.71l.38.89c.34.76.69,1.52,1.05,2.27v-2.1c0-.06-.05-.12-.07-.17-.14-.3-.27-.6-.4-.89a70.68,70.68,0,0,1-5.76-27.6v-.45m134.44,31a71.29,71.29,0,0,1-6.23,10.41v1.5a72,72,0,0,0,6.23-9.93Zm-127.32,0v2a72,72,0,0,0,6.23,9.93v-1.5a70.42,70.42,0,0,1-6.23-10.41m120.19,11.61a68.63,68.63,0,0,1-6.16,7.13l-.31.32-.32.31a69.94,69.94,0,0,1-7.13,6.17h1.47a73.49,73.49,0,0,0,6.29-5.54l.63-.63a71.69,71.69,0,0,0,5.53-6.29Zm-113.07,0v1.46a72,72,0,0,0,5.54,6.29l.63.63a72,72,0,0,0,6.29,5.54h1.46a70.92,70.92,0,0,1-7.12-6.17l-.32-.31-.31-.32a70.92,70.92,0,0,1-6.17-7.12m13.63,14.81a72,72,0,0,0,9.93,6.23h2a70.42,70.42,0,0,1-10.41-6.23Zm84.32,0A70.42,70.42,0,0,1,461,469.13h2a72,72,0,0,0,9.93-6.23ZM461.21,470H459.1l-.17.07-.89.4a70.61,70.61,0,0,1-27.6,5.76h10.9a70.5,70.5,0,0,0,16.7-4.8l.89-.38q1.15-.51,2.28-1.05m-60.32,0h-2.1c.75.36,1.51.71,2.27,1.05l.89.38a70.71,70.71,0,0,0,16.71,4.8h10.89a70.68,70.68,0,0,1-27.6-5.76l-.89-.4-.17-.07" transform="translate(-84.53 -72)"/><path class="cls-3" d="M486.53,348.05H373.47c0,.14,0,.29,0,.44v.45H486.53v-.89m.89,0v.89a13.72,13.72,0,0,1,5.09,1.15,13.16,13.16,0,0,1,1.19.59,13.82,13.82,0,0,1,7.08,12.06v85.47a13.82,13.82,0,0,1-7.08,12.05,11,11,0,0,1-1.19.59,13.72,13.72,0,0,1-5.09,1.15v.45h-.89V462H373.46v.44c0,.15,0,.3,0,.45H486.53v-.45h.89v.44l.6,0a14.87,14.87,0,0,0,3.9-.81c.43-.16.85-.33,1.26-.52a14.71,14.71,0,0,0,8.49-13.32V362.74a14.71,14.71,0,0,0-8.49-13.33q-.62-.29-1.26-.51a14.88,14.88,0,0,0-3.9-.82l-.6,0m-114.84,0-.6,0a14.79,14.79,0,0,0-3.9.82q-.65.23-1.26.51a14.7,14.7,0,0,0-8.49,13.33v85.47a14.69,14.69,0,0,0,8.49,13.32c.41.19.83.36,1.26.52a15.19,15.19,0,0,0,3.9.81l.6,0c0-.15,0-.29,0-.44V462a13.72,13.72,0,0,1-5.08-1.15,11,11,0,0,1-1.19-.59,13.82,13.82,0,0,1-7.08-12.05V362.74a13.82,13.82,0,0,1,7.08-12.06,13.16,13.16,0,0,1,1.19-.59,13.72,13.72,0,0,1,5.08-1.15v-.45c0-.15,0-.29,0-.44" transform="translate(-84.53 -72)"/><path class="cls-3" d="M472.74,333.8H387.27a14.7,14.7,0,0,0-13.33,8.49q-.29.61-.51,1.26a14.79,14.79,0,0,0-.82,3.9l0,.6c0,.15,0,.29,0,.44v114c0,.15,0,.29,0,.44l0,.6a14.88,14.88,0,0,0,.82,3.9q.22.64.51,1.26a14.71,14.71,0,0,0,13.33,8.49h85.47a14.71,14.71,0,0,0,13.32-8.49c.19-.41.36-.83.52-1.26a14.87,14.87,0,0,0,.81-3.9l0-.6c0-.15,0-.29,0-.44h-.89c0,.15,0,.3,0,.45a13.72,13.72,0,0,1-1.15,5.08,13.16,13.16,0,0,1-.59,1.19,13.82,13.82,0,0,1-12.05,7.08H387.27a13.82,13.82,0,0,1-12.06-7.08,13.16,13.16,0,0,1-.59-1.19,13.72,13.72,0,0,1-1.15-5.08V348a13.72,13.72,0,0,1,1.15-5.08,13.16,13.16,0,0,1,.59-1.19,13.82,13.82,0,0,1,12.06-7.08h85.47a13.82,13.82,0,0,1,12.05,7.08,13.16,13.16,0,0,1,.59,1.19,13.72,13.72,0,0,1,1.15,5.08c0,.15,0,.3,0,.45v114h.89v-114c0-.15,0-.29,0-.44l0-.6a15.19,15.19,0,0,0-.81-3.9c-.16-.43-.33-.85-.52-1.26a14.69,14.69,0,0,0-13.32-8.49" transform="translate(-84.53 -72)"/></g><path class="cls-3" d="M515.47,320H344.53V490.94H515.47Zm-.89.89h0V490.05H345.42V320.89H514.58Z" transform="translate(-84.53 -72)"/><g class="cls-2"><path class="cls-4" d="M479.86,340.92H380.14a14.63,14.63,0,0,0-4.93.85,13.16,13.16,0,0,0-.59,1.19,13.74,13.74,0,0,1,5.52-1.15h99.72a13.74,13.74,0,0,1,5.52,1.15,13.16,13.16,0,0,0-.59-1.19,14.63,14.63,0,0,0-4.93-.85m6.2,1.37q.29.61.51,1.26a14.58,14.58,0,0,1,2.73,2l.32.31.31.32a14.58,14.58,0,0,1,2,2.73q.65.23,1.26.51a15.09,15.09,0,0,0-2.62-3.87l-.63-.63a15.09,15.09,0,0,0-3.87-2.62m-112.12,0a15.09,15.09,0,0,0-3.87,2.62l-.63.63a15.09,15.09,0,0,0-2.62,3.87q.62-.29,1.26-.51a13.74,13.74,0,0,1,2-2.73l.31-.32.32-.31a14.84,14.84,0,0,1,2.72-2c.16-.43.33-.85.52-1.26m118.57,7.8a13.74,13.74,0,0,1,1.15,5.52v99.72a13.74,13.74,0,0,1-1.15,5.52,11,11,0,0,0,1.19-.59,14.63,14.63,0,0,0,.85-4.93V355.61a14.63,14.63,0,0,0-.85-4.93,13.16,13.16,0,0,0-1.19-.59m-125,0a13.16,13.16,0,0,0-1.19.59,14.63,14.63,0,0,0-.85,4.93v99.72a14.63,14.63,0,0,0,.85,4.93,11,11,0,0,0,1.19.59,13.74,13.74,0,0,1-1.15-5.52V355.61a13.74,13.74,0,0,1,1.15-5.52m-.67,111.44a15.09,15.09,0,0,0,2.62,3.87l.63.63a14.59,14.59,0,0,0,3.87,2.62c-.19-.41-.36-.83-.52-1.26a14,14,0,0,1-2.72-2l-.32-.31-.31-.32a14,14,0,0,1-2-2.72c-.43-.16-.85-.33-1.26-.52m126.36,0c-.41.19-.83.36-1.26.52a14.84,14.84,0,0,1-2,2.72l-.31.32-.32.31a13.74,13.74,0,0,1-2.73,2q-.22.64-.51,1.26a14.59,14.59,0,0,0,3.87-2.62l.63-.63a15.09,15.09,0,0,0,2.62-3.87M374.62,468a13.16,13.16,0,0,0,.59,1.19,14.63,14.63,0,0,0,4.93.85h99.72a14.63,14.63,0,0,0,4.93-.85,13.16,13.16,0,0,0,.59-1.19,13.74,13.74,0,0,1-5.52,1.15H380.14a13.74,13.74,0,0,1-5.52-1.15" transform="translate(-84.53 -72)"/><path class="cls-5" d="M489.86,437.28H466a4,4,0,0,1-4-4V409.4a4,4,0,0,0-4-4h-23.9a4,4,0,0,1-4-4v-23.9a4,4,0,0,0-4-4h-23.9a4,4,0,0,1-4-4v-23.9a4,4,0,0,0-4-4H380.55a14.16,14.16,0,0,0-14.17,14.17V455a14.16,14.16,0,0,0,14.17,14.16h99.13A14.16,14.16,0,0,0,493.84,455V441.26a4,4,0,0,0-4-4" transform="translate(-84.53 -72)"/><path class="cls-5" d="M434.09,373.55H458a4,4,0,0,0,4-4v-23.9a4,4,0,0,0-4-4h-23.9a4,4,0,0,0-4,4v23.9a4,4,0,0,0,4,4" transform="translate(-84.53 -72)"/><path class="cls-5" d="M489.86,373.55H466a4,4,0,0,0-4,4v23.9a4,4,0,0,0,4,4h23.9a4,4,0,0,0,4-4v-23.9a4,4,0,0,0-4-4" transform="translate(-84.53 -72)"/><path class="cls-5" d="M212.55,426.57h-7.08V377.7a.71.71,0,0,0-.71-.71H163a.71.71,0,0,0-.71.71v12.75a.7.7,0,0,0,.71.7h27.62a.71.71,0,0,1,.71.71v56a7.09,7.09,0,1,0,14.17,0v-7.08h7.08a7.09,7.09,0,0,0,0-14.17" transform="translate(-84.53 -72)"/><path class="cls-5" d="M176.43,419.49H149.6a.7.7,0,0,1-.7-.71v-56a7.09,7.09,0,0,0-14.17,0v7.08h-7.08a7.09,7.09,0,1,0,0,14.17h7.08V433a.7.7,0,0,0,.71.7h41a.7.7,0,0,0,.7-.7V420.2a.7.7,0,0,0-.7-.71" transform="translate(-84.53 -72)"/><path class="cls-5" d="M148.8,447.83l-9.07,13.53a63.54,63.54,0,0,1-31.87-41.86h-7.23a70.84,70.84,0,0,0,35.21,47.81,73.07,73.07,0,0,0,6.8,3.4,72,72,0,0,0,27.41,5.45l-5.45-7.29Z" transform="translate(-84.53 -72)"/><path class="cls-5" d="M204.26,343.35a73.07,73.07,0,0,0-6.8-3.4,72,72,0,0,0-27.41-5.45l5.45,7.29,15.8,21,9.07-13.53a63.57,63.57,0,0,1,31.87,41.86h7.23a70.84,70.84,0,0,0-35.21-47.81" transform="translate(-84.53 -72)"/><path class="cls-5" d="M170,200.11c-21.72,0-39.33-17.23-39.33-38.48s17.61-38.49,39.33-38.49,39.33,17.23,39.33,38.49S191.72,200.11,170,200.11m36.55-82a22.67,22.67,0,0,1-5.67-5.63c-1.94-3-6.63-11.6-9.2-11.6H148.32c-2.57,0-7.26,8.57-9.2,11.69a23.35,23.35,0,0,1-5.67,5.54c-37.78,13.68-33.89,19.59-34.24,19.59v62.32a14.19,14.19,0,0,0,14.34,14h112.9a14.19,14.19,0,0,0,14.34-14V137.74c-.35,0,3.54-5.91-34.24-19.59" transform="translate(-84.53 -72)"/><path class="cls-5" d="M170,138.54a23.1,23.1,0,1,0,23.6,23.09A23.35,23.35,0,0,0,170,138.54" transform="translate(-84.53 -72)"/><path class="cls-5" d="M447.12,175.74c-3.36,8.15-11.85,13.52-20.22,11.68-10.66-2.35-16.11-13.72-12.21-23.7l.1-.25a22,22,0,0,1,5.14-7l.44-.4a33,33,0,0,1,9.18-5.73l32.18-13.92a.86.86,0,0,1,1.12,1.15Zm-16.83-69.09a60.88,60.88,0,1,0,60.8,60.88,60.85,60.85,0,0,0-60.8-60.88" transform="translate(-84.53 -72)"/><path class="cls-5" d="M377,116.42l22.41-17.81a3.58,3.58,0,0,0,.58-5L395.57,88a3.57,3.57,0,0,0-5-.58L368.14,105.2a3.58,3.58,0,0,0-.58,5l4.44,5.61a3.58,3.58,0,0,0,5,.58" transform="translate(-84.53 -72)"/><path class="cls-5" d="M491.86,105.2,469.45,87.39a3.58,3.58,0,0,0-5,.58L460,93.58a3.58,3.58,0,0,0,.58,5L483,116.42a3.58,3.58,0,0,0,5-.58l4.44-5.61a3.58,3.58,0,0,0-.58-5" transform="translate(-84.53 -72)"/></g></g></g></svg>