<svg xmlns="http://www.w3.org/2000/svg" xmlns:xlink="http://www.w3.org/1999/xlink" viewBox="0 0 314.37 115.51"><defs><style>.cls-1,.cls-18,.cls-4,.cls-5{fill:none;}.cls-2{clip-path:url(#clip-path);}.cls-3{fill:#212121;}.cls-4,.cls-5{stroke:#12abf5;}.cls-18,.cls-4,.cls-5{stroke-miterlimit:10;}.cls-4{stroke-width:1.43px;}.cls-5{stroke-width:0.71px;}.cls-6{opacity:0.5;}.cls-7{clip-path:url(#clip-path-3);}.cls-19,.cls-8{fill:#13abf6;}.cls-9{clip-path:url(#clip-path-4);}.cls-10{clip-path:url(#clip-path-5);}.cls-11{clip-path:url(#clip-path-6);}.cls-12{clip-path:url(#clip-path-7);}.cls-13{clip-path:url(#clip-path-8);}.cls-14{clip-path:url(#clip-path-9);}.cls-15{clip-path:url(#clip-path-10);}.cls-16{clip-path:url(#clip-path-11);}.cls-17{clip-path:url(#clip-path-12);}.cls-18{stroke:#13abf6;stroke-width:0.5px;}.cls-19{font-size:12px;font-family:Roboto-Regular, Roboto;}</style><clipPath id="clip-path" transform="translate(-145.63 -64.8)"><rect class="cls-1" width="600" height="600"/></clipPath><clipPath id="clip-path-3" transform="translate(-145.63 -64.8)"><rect class="cls-1" x="219.72" y="58.72" width="44.28" height="34.28"/></clipPath><clipPath id="clip-path-4" transform="translate(-145.63 -64.8)"><rect class="cls-1" x="262.5" y="158.7" width="32.34" height="22.34"/></clipPath><clipPath id="clip-path-5" transform="translate(-145.63 -64.8)"><rect class="cls-1" x="248.25" y="87.34" width="24.81" height="14.81"/></clipPath><clipPath id="clip-path-6" transform="translate(-145.63 -64.8)"><rect class="cls-1" x="298.25" y="80.13" width="24.81" height="14.81"/></clipPath><clipPath id="clip-path-7" transform="translate(-145.63 -64.8)"><rect class="cls-1" x="298.25" y="109.05" width="24.81" height="14.81"/></clipPath><clipPath id="clip-path-8" transform="translate(-145.63 -64.8)"><rect class="cls-1" x="341.42" y="80.13" width="24.81" height="14.81"/></clipPath><clipPath id="clip-path-9" transform="translate(-145.63 -64.8)"><rect class="cls-1" x="341.42" y="109.05" width="24.81" height="14.81"/></clipPath><clipPath id="clip-path-10" transform="translate(-145.63 -64.8)"><rect class="cls-1" x="248.25" y="101.89" width="24.81" height="14.81"/></clipPath><clipPath id="clip-path-11" transform="translate(-145.63 -64.8)"><rect class="cls-1" x="270" y="87.34" width="24.81" height="14.81"/></clipPath><clipPath id="clip-path-12" transform="translate(-145.63 -64.8)"><rect class="cls-1" x="270" y="101.89" width="24.81" height="14.81"/></clipPath></defs><g id="Layer_2" data-name="Layer 2"><g id="Layer_1-2" data-name="Layer 1"><g class="cls-2"><g class="cls-2"><path class="cls-3" d="M353.65,122.84H310.81a3.57,3.57,0,0,1-3.57-3.57V90.71a3.57,3.57,0,0,1,3.57-3.57h42.84a3.57,3.57,0,0,1,3.57,3.57v28.56a3.57,3.57,0,0,1-3.57,3.57m-71.4-7.14H260.84a3.57,3.57,0,0,1-3.57-3.57V97.85a3.57,3.57,0,0,1,3.57-3.57h21.41a3.57,3.57,0,0,1,3.57,3.57v14.28a3.57,3.57,0,0,1-3.57,3.57m75-50H243A14.28,14.28,0,0,0,228.71,80v64.26A14.28,14.28,0,0,0,243,158.54H357.22a14.28,14.28,0,0,0,14.28-14.28V80a14.28,14.28,0,0,0-14.28-14.28" transform="translate(-145.63 -64.8)"/><path class="cls-3" d="M321.52,165.68H278.69a7.14,7.14,0,1,0,0,14.27h42.83a7.14,7.14,0,1,0,0-14.27" transform="translate(-145.63 -64.8)"/><path class="cls-4" d="M243,158.54a14.28,14.28,0,0,1-14.28-14.28m142.79,0a14.28,14.28,0,0,1-14.28,14.28m0-92.82A14.28,14.28,0,0,1,371.5,80m-143-.21a14.28,14.28,0,0,1,14.28-14.28" transform="translate(-145.63 -64.8)"/><path class="cls-5" d="M271.55,172.82a7.13,7.13,0,0,1,7.13-7.14m0,14.27a7.13,7.13,0,0,1-7.13-7.13m57.11,0a7.13,7.13,0,0,1-7.14,7.13m0-14.27a7.13,7.13,0,0,1,7.14,7.14M260.82,115.7a3.57,3.57,0,0,1-3.57-3.57m50,7.14a3.57,3.57,0,0,0,3.57,3.57m46.39-3.57a3.57,3.57,0,0,1-3.57,3.57m3.57-32.15a3.57,3.57,0,0,0-3.57-3.57m-46.39,3.57a3.57,3.57,0,0,1,3.57-3.57M257.25,97.85a3.57,3.57,0,0,1,3.57-3.57m21.43,21.42a3.57,3.57,0,0,0,3.57-3.57m0-14.28a3.57,3.57,0,0,0-3.57-3.57" transform="translate(-145.63 -64.8)"/><g class="cls-6"><g class="cls-7"><path class="cls-8" d="M241.86,92a13.14,13.14,0,1,0-13.14-13.14A13.14,13.14,0,0,0,241.86,92" transform="translate(-145.63 -64.8)"/></g></g><g class="cls-6"><g class="cls-9"><path class="cls-8" d="M278.67,180a7.17,7.17,0,1,0-7.17-7.17,7.17,7.17,0,0,0,7.17,7.17" transform="translate(-145.63 -64.8)"/></g></g><g class="cls-6"><g class="cls-10"><path class="cls-8" d="M260.66,101.15a3.41,3.41,0,1,0-3.41-3.41,3.41,3.41,0,0,0,3.41,3.41" transform="translate(-145.63 -64.8)"/></g></g><g class="cls-6"><g class="cls-11"><path class="cls-8" d="M310.66,93.94a3.41,3.41,0,1,0-3.41-3.41,3.41,3.41,0,0,0,3.41,3.41" transform="translate(-145.63 -64.8)"/></g></g><g class="cls-6"><g class="cls-12"><path class="cls-8" d="M310.66,122.86a3.41,3.41,0,1,0-3.41-3.41,3.41,3.41,0,0,0,3.41,3.41" transform="translate(-145.63 -64.8)"/></g></g><g class="cls-6"><g class="cls-13"><path class="cls-8" d="M353.83,93.94a3.41,3.41,0,1,0-3.41-3.41,3.41,3.41,0,0,0,3.41,3.41" transform="translate(-145.63 -64.8)"/></g></g><g class="cls-6"><g class="cls-14"><path class="cls-8" d="M353.83,122.86a3.41,3.41,0,1,0-3.41-3.41,3.41,3.41,0,0,0,3.41,3.41" transform="translate(-145.63 -64.8)"/></g></g><g class="cls-6"><g class="cls-15"><path class="cls-8" d="M260.66,115.71a3.41,3.41,0,1,0-3.41-3.41,3.41,3.41,0,0,0,3.41,3.41" transform="translate(-145.63 -64.8)"/></g></g><g class="cls-6"><g class="cls-16"><path class="cls-8" d="M282.41,101.15A3.41,3.41,0,1,0,279,97.74a3.41,3.41,0,0,0,3.41,3.41" transform="translate(-145.63 -64.8)"/></g></g><g class="cls-6"><g class="cls-17"><path class="cls-8" d="M282.41,115.71A3.41,3.41,0,1,0,279,112.3a3.41,3.41,0,0,0,3.41,3.41" transform="translate(-145.63 -64.8)"/></g></g></g><line class="cls-18" x1="83.09" y1="14.88" x2="12.53" y2="14.88"/><line class="cls-18" x1="133.06" y1="100.75" x2="12.53" y2="100.75"/><line class="cls-18" x1="294.43" y1="58.01" x2="208.13" y2="58.01"/><line class="cls-18" x1="97.15" y1="0.25" x2="12.53" y2="0.25"/><line class="cls-18" x1="126.29" y1="107.89" x2="12.53" y2="107.89"/><line class="cls-18" x1="294.43" y1="54.25" x2="211.25" y2="54.25"/><text class="cls-19" transform="translate(0 11.13)">2</text><text class="cls-19" transform="translate(0 108.33)">1</text><text class="cls-19" transform="translate(297.73 60.54)">0.5</text><line class="cls-18" x1="19.03" y1="100.5" x2="19.03" y2="107.82"/><line class="cls-18" x1="18.53" x2="18.53" y2="15.13"/><line class="cls-18" x1="290.21" y1="54.25" x2="290.21" y2="57.76"/></g></g></g></svg>