<svg xmlns="http://www.w3.org/2000/svg" xmlns:xlink="http://www.w3.org/1999/xlink" viewBox="0 0 1081.82 854.21"><defs><style>.cls-1,.cls-100,.cls-102,.cls-98,.cls-99{fill:none;}.cls-101,.cls-2,.cls-27,.cls-9{font-size:20px;}.cls-101,.cls-13,.cls-18,.cls-2,.cls-27,.cls-35,.cls-41,.cls-44,.cls-48,.cls-50,.cls-61,.cls-9,.cls-93,.cls-95{fill:#231f20;}.cls-101,.cls-13,.cls-2,.cls-44,.cls-48,.cls-61,.cls-72,.cls-76,.cls-84,.cls-87,.cls-9,.cls-95{font-family:ProximaNova-Regular, Proxima Nova;}.cls-10,.cls-2{letter-spacing:-0.02em;}.cls-3{letter-spacing:-0.02em;}.cls-4{letter-spacing:-0.02em;}.cls-5{letter-spacing:-0.02em;}.cls-6{letter-spacing:-0.05em;}.cls-7{letter-spacing:-0.02em;}.cls-8{letter-spacing:0em;}.cls-11{clip-path:url(#clip-path);}.cls-12{fill:#2c7ec5;}.cls-13,.cls-48,.cls-61,.cls-63,.cls-67,.cls-93{font-size:14px;}.cls-14{letter-spacing:-0.04em;}.cls-15{letter-spacing:-0.02em;}.cls-16{letter-spacing:-0.02em;}.cls-17,.cls-48{letter-spacing:-0.02em;}.cls-18{font-size:26px;}.cls-18,.cls-27,.cls-35,.cls-41,.cls-54,.cls-81,.cls-82,.cls-93{font-family:ProximaNova-Bold, Proxima Nova;font-weight:700;}.cls-19{letter-spacing:-0.02em;}.cls-20{letter-spacing:-0.04em;}.cls-21{letter-spacing:-0.02em;}.cls-22{letter-spacing:-0.04em;}.cls-23{letter-spacing:-0.02em;}.cls-24{letter-spacing:-0.02em;}.cls-25{letter-spacing:-0.02em;}.cls-26{letter-spacing:-0.02em;}.cls-28{letter-spacing:-0.01em;}.cls-29{letter-spacing:-0.01em;}.cls-30{letter-spacing:-0.01em;}.cls-31{letter-spacing:-0.01em;}.cls-32{letter-spacing:-0.04em;}.cls-33{letter-spacing:-0.05em;}.cls-34{letter-spacing:-0.03em;}.cls-35,.cls-41{font-size:17px;}.cls-36{letter-spacing:-0.02em;}.cls-37{letter-spacing:-0.02em;}.cls-38,.cls-41{letter-spacing:-0.02em;}.cls-39{letter-spacing:-0.04em;}.cls-40{letter-spacing:-0.04em;}.cls-42{letter-spacing:0em;}.cls-43{letter-spacing:-0.05em;}.cls-44,.cls-50,.cls-54{font-size:15px;}.cls-45{letter-spacing:-0.02em;}.cls-46{letter-spacing:-0.02em;}.cls-47{letter-spacing:-0.05em;}.cls-49{letter-spacing:0em;}.cls-50,.cls-63,.cls-67{font-family:ProximaNova-Medium, Proxima Nova;font-weight:500;}.cls-51{letter-spacing:-0.03em;}.cls-52{letter-spacing:0em;}.cls-53{letter-spacing:-0.02em;}.cls-55{letter-spacing:0.02em;}.cls-56{letter-spacing:0.02em;}.cls-57{letter-spacing:0.02em;}.cls-58{letter-spacing:0em;}.cls-59{letter-spacing:0em;}.cls-60{letter-spacing:-0.05em;}.cls-61{letter-spacing:-0.05em;}.cls-62{letter-spacing:0em;}.cls-64,.cls-67{letter-spacing:-0.01em;}.cls-65{letter-spacing:-0.01em;}.cls-66{letter-spacing:-0.04em;}.cls-68{letter-spacing:-0.04em;}.cls-69{letter-spacing:0em;}.cls-70{letter-spacing:-0.05em;}.cls-71{letter-spacing:-0.03em;}.cls-72,.cls-76,.cls-81,.cls-82,.cls-95{font-size:12px;}.cls-73,.cls-76{letter-spacing:-0.01em;}.cls-74{letter-spacing:-0.04em;}.cls-75{letter-spacing:-0.01em;}.cls-77{letter-spacing:-0.04em;}.cls-78{letter-spacing:0em;}.cls-79{letter-spacing:-0.04em;}.cls-80{letter-spacing:0em;}.cls-82{letter-spacing:-0.01em;}.cls-83{letter-spacing:-0.03em;}.cls-84,.cls-87{font-size:18px;}.cls-85{letter-spacing:-0.01em;}.cls-86,.cls-87{letter-spacing:-0.01em;}.cls-88{letter-spacing:-0.04em;}.cls-89{letter-spacing:0em;}.cls-90{letter-spacing:-0.04em;}.cls-91{letter-spacing:-0.03em;}.cls-92{letter-spacing:-0.03em;}.cls-94{letter-spacing:-0.02em;}.cls-96{letter-spacing:-0.03em;}.cls-97{letter-spacing:-0.03em;}.cls-98{stroke:#15b1fb;}.cls-100,.cls-102,.cls-99{stroke:#2c7ec5;}.cls-99{stroke-width:2px;}.cls-100{stroke-width:1.4px;}.cls-101{letter-spacing:-0.06em;}.cls-102{stroke-width:0.5px;}.cls-103{letter-spacing:-0.04em;}</style><clipPath id="clip-path" transform="translate(-19.24 -53.14)"><rect class="cls-1" width="1112.38" height="906.57"/></clipPath></defs><g id="Layer_2" data-name="Layer 2"><g id="Layer_1-2" data-name="Layer 1"><text class="cls-2" transform="translate(0.02 16.66)">Font<tspan class="cls-3" x="37.82" y="0"> </tspan><tspan class="cls-4" x="42.58" y="0">f</tspan><tspan class="cls-5" x="47.86" y="0">a</tspan><tspan x="58" y="0">mily</tspan><tspan class="cls-3" x="91.44" y="0">:</tspan><tspan x="95.64" y="0" xml:space="preserve"> Pr</tspan><tspan class="cls-6" x="118" y="0">o</tspan><tspan class="cls-5" x="128.44" y="0">x</tspan><tspan x="137.76" y="0">im</tspan><tspan class="cls-3" x="157.66" y="0">a </tspan><tspan class="cls-7" x="172.56" y="0">Nov</tspan><tspan class="cls-8" x="206.82" y="0">a</tspan></text><text class="cls-9" transform="translate(316.08 16.9)"><tspan class="cls-10">Siz</tspan><tspan x="24.52" y="0">e</tspan></text><g class="cls-11"><path class="cls-12" d="M312,60.14h1.4L314,56.5l-1.18,1.07h10l-1.17-1.07.58,3.64h1.39l-.1-3.64H312.16Zm4.43,9.63h2.71c-.06-2.06-.06-4.14-.06-6.21V62.7c0-2.1,0-4.18.06-6.2h-2.71c.06,2.06.06,4.14.06,6.2v.87c0,2.1,0,4.18-.06,6.2m-1.86,0H321v-.94l-2.91-.3h-.64l-2.88.3Z" transform="translate(-19.24 -53.14)"/><path class="cls-12" d="M308,63.77h.83l.34-2.27-.7.66h5.88l-.69-.66.34,2.27h.83l-.07-2.27h-6.69Zm2.61,6h1.6c0-1.29,0-2.58,0-3.87v-.54c0-1.3,0-2.6,0-3.86h-1.6c0,1.28,0,2.58,0,3.86v.54c0,1.31,0,2.61,0,3.87m-1.09,0h3.79v-.59L311.64,69h-.38l-1.7.18Z" transform="translate(-19.24 -53.14)"/></g><text class="cls-13" transform="translate(788.8 74.42)"><tspan class="cls-14">P</tspan><tspan class="cls-15" x="7.67" y="0">age title</tspan><tspan class="cls-16" x="54.6" y="0">s</tspan><tspan class="cls-17" x="60.83" y="0" xml:space="preserve"> /</tspan><tspan class="cls-16" x="68.05" y="0"> </tspan><tspan class="cls-15" x="71.38" y="0">mai</tspan><tspan class="cls-3" x="92.43" y="0">n</tspan><tspan class="cls-17" x="99.86" y="0" xml:space="preserve"> headi</tspan><tspan class="cls-16" x="136.06" y="0">n</tspan><tspan x="143.5" y="0">g</tspan></text><text class="cls-18" transform="translate(316.08 83.9)"><tspan class="cls-19">26</tspan><tspan class="cls-20" x="30.42" y="0">p</tspan><tspan x="44.51" y="0">x</tspan></text><text class="cls-18" transform="translate(464.78 83.9)"><tspan class="cls-21">-</tspan><tspan class="cls-22" x="7.31" y="0">0</tspan><tspan class="cls-19" x="22.36" y="0">.</tspan><tspan class="cls-23" x="28.52" y="0">0</tspan><tspan class="cls-21" x="44.12" y="0">2e</tspan><tspan x="73.11" y="0">m</tspan></text><text class="cls-18" transform="translate(625.38 83.9)"><tspan class="cls-24">B</tspan><tspan class="cls-21" x="16.72" y="0">ol</tspan><tspan x="37.23" y="0">d</tspan></text><text class="cls-18" transform="translate(0 83.9)"><tspan class="cls-24">Be</tspan><tspan class="cls-19" x="30.58" y="0"> </tspan><tspan class="cls-3" x="36.74" y="0">a</tspan><tspan class="cls-19" x="50.34" y="0" xml:space="preserve"> h</tspan><tspan class="cls-24" x="71.08" y="0">e</tspan><tspan class="cls-19" x="84.94" y="0">r</tspan><tspan x="93.81" y="0">o</tspan></text><text class="cls-13" transform="translate(788.8 205.75)"><tspan class="cls-17">U</tspan><tspan class="cls-3" x="9.53" y="0">s</tspan><tspan class="cls-17" x="15.76" y="0">ed o</tspan><tspan class="cls-16" x="42.25" y="0">n</tspan><tspan class="cls-15" x="49.69" y="0" xml:space="preserve"> title</tspan><tspan class="cls-16" x="74.11" y="0">s</tspan><tspan class="cls-15" x="80.34" y="0" xml:space="preserve"> for</tspan><tspan class="cls-16" x="99.48" y="0"> </tspan><tspan class="cls-17" x="102.81" y="0">co</tspan><tspan class="cls-16" x="117.22" y="0">n</tspan><tspan class="cls-17" x="124.65" y="0">te</tspan><tspan class="cls-3" x="136.12" y="0">n</tspan><tspan class="cls-17" x="143.55" y="0">t</tspan><tspan class="cls-3" x="147.4" y="0"> </tspan><tspan class="cls-15" x="150.74" y="0">s</tspan><tspan class="cls-25" x="156.98" y="0">uc</tspan><tspan class="cls-17" x="171.06" y="0">h</tspan><tspan class="cls-3" x="178.52" y="0"> </tspan><tspan class="cls-26" x="181.86" y="0">a</tspan><tspan class="cls-25" x="188.97" y="0">s</tspan><tspan class="cls-26" x="195.2" y="0" xml:space="preserve"> footage /</tspan><tspan class="cls-3" x="251.3" y="0"> </tspan><tspan class="cls-17" x="254.63" y="0">edit</tspan><tspan x="276.76" y="0">s</tspan></text><text class="cls-27" transform="translate(0.02 210.49)"><tspan class="cls-28">B</tspan><tspan class="cls-29" x="13.06" y="0">e</tspan><tspan class="cls-30" x="23.94" y="0" xml:space="preserve"> a </tspan><tspan class="cls-31" x="44.44" y="0">h</tspan><tspan class="cls-30" x="55.86" y="0">e</tspan><tspan class="cls-29" x="66.72" y="0">r</tspan><tspan x="73.74" y="0">o</tspan></text><text class="cls-27" transform="translate(316.08 210.49)"><tspan class="cls-10">20</tspan><tspan class="cls-32" x="23.64" y="0">p</tspan><tspan x="34.48" y="0">x</tspan></text><text class="cls-27" transform="translate(625.4 210.49)"><tspan class="cls-5">B</tspan><tspan class="cls-10" x="12.86" y="0">ol</tspan><tspan x="28.64" y="0">d</tspan></text><text class="cls-13" transform="translate(788.8 335.48)"><tspan class="cls-17">U</tspan><tspan class="cls-3" x="9.53" y="0">s</tspan><tspan class="cls-17" x="15.76" y="0">ed for</tspan><tspan class="cls-16" x="50.3" y="0"> </tspan><tspan class="cls-15" x="53.63" y="0">call</tspan><tspan class="cls-16" x="73.18" y="0"> </tspan><tspan class="cls-15" x="76.51" y="0">to</tspan><tspan class="cls-3" x="88.1" y="0"> </tspan><tspan class="cls-17" x="91.43" y="0">actio</tspan><tspan class="cls-16" x="119.68" y="0">n </tspan><tspan class="cls-15" x="130.45" y="0">t</tspan><tspan class="cls-33" x="134.3" y="0">e</tspan><tspan class="cls-16" x="141.47" y="0">x</tspan><tspan class="cls-15" x="147.99" y="0">t</tspan><tspan class="cls-3" x="151.84" y="0"> </tspan><tspan class="cls-26" x="155.17" y="0">(</tspan><tspan class="cls-34" x="158.38" y="0">e.</tspan><tspan class="cls-17" x="168.75" y="0">g.</tspan><tspan class="cls-3" x="179.48" y="0"> </tspan><tspan class="cls-17" x="182.81" y="0">b</tspan><tspan class="cls-3" x="190.59" y="0">u</tspan><tspan class="cls-17" x="198.03" y="0">tto</tspan><tspan class="cls-3" x="213.47" y="0">n</tspan><tspan class="cls-17" x="220.9" y="0">s</tspan><tspan x="227.15" y="0">)</tspan></text><text class="cls-35" transform="translate(0.02 337.85)"><tspan class="cls-3">Be a</tspan><tspan class="cls-36" x="32.89" y="0" xml:space="preserve"> h</tspan><tspan class="cls-37" x="46.46" y="0">e</tspan><tspan class="cls-38" x="55.52" y="0">r</tspan><tspan x="61.32" y="0">o</tspan></text><text class="cls-35" transform="translate(316.09 337.85)"><tspan class="cls-37">1</tspan><tspan class="cls-38" x="6.65" y="0">7</tspan><tspan class="cls-39" x="15.59" y="0">p</tspan><tspan x="24.8" y="0">x</tspan></text><text class="cls-35" transform="translate(464.78 337.85)"><tspan class="cls-36">-</tspan><tspan class="cls-40" x="4.78" y="0">0</tspan><tspan class="cls-38" x="14.64" y="0">.</tspan><tspan class="cls-37" x="18.67" y="0">0</tspan><tspan class="cls-38" x="28.87" y="0">2e</tspan><tspan x="47.82" y="0">m</tspan></text><text class="cls-41" transform="translate(625.4 337.85)">Bol<tspan class="cls-42" x="24.36" y="0">d</tspan></text><text class="cls-13" transform="translate(788.8 464.69)"><tspan class="cls-17">U</tspan><tspan class="cls-3" x="9.53" y="0">s</tspan><tspan class="cls-17" x="15.76" y="0">ed for</tspan><tspan class="cls-16" x="50.3" y="0"> </tspan><tspan class="cls-15" x="53.63" y="0">caption</tspan><tspan class="cls-3" x="97.1" y="0"> </tspan><tspan class="cls-17" x="100.43" y="0">t</tspan><tspan class="cls-43" x="104.28" y="0">e</tspan><tspan class="cls-16" x="111.44" y="0">x</tspan><tspan class="cls-17" x="117.96" y="0">t</tspan><tspan class="cls-3" x="121.81" y="0"> </tspan><tspan class="cls-17" x="125.14" y="0">to </tspan><tspan class="cls-3" x="140.08" y="0">su</tspan><tspan class="cls-26" x="153.75" y="0">ppleme</tspan><tspan class="cls-3" x="198.45" y="0">n</tspan><tspan class="cls-26" x="205.88" y="0">t</tspan><tspan class="cls-3" x="209.73" y="0"> </tspan><tspan class="cls-17" x="213.06" y="0">header</tspan><tspan x="255.01" y="0">s</tspan></text><text class="cls-44" transform="translate(0.02 465.48)"><tspan class="cls-45">Be </tspan><tspan class="cls-46" x="20.89" y="0">a</tspan><tspan class="cls-45" x="28.5" y="0" xml:space="preserve"> her</tspan><tspan x="52.9" y="0">o</tspan></text><text class="cls-44" transform="translate(316.09 465.48)"><tspan class="cls-45">15</tspan><tspan class="cls-6" x="13.36" y="0">p</tspan><tspan x="21.22" y="0">x</tspan></text><text class="cls-44" transform="translate(464.78 465.48)"><tspan class="cls-45">-</tspan><tspan class="cls-6" x="4.21" y="0">0</tspan><tspan class="cls-46" x="12.65" y="0">.0</tspan><tspan class="cls-45" x="24.67" y="0">2e</tspan><tspan x="41.37" y="0">m</tspan></text><text class="cls-44" transform="translate(625.39 465.48)"><tspan class="cls-47">R</tspan><tspan class="cls-45" x="8.38" y="0">egula</tspan><tspan x="43.56" y="0">r</tspan></text><text class="cls-48" transform="translate(788.8 528.76)">U<tspan class="cls-3" x="9.53" y="0">s</tspan><tspan x="15.76" y="0">ed for</tspan><tspan class="cls-16" x="50.3" y="0"> </tspan><tspan class="cls-15" x="53.63" y="0">t</tspan><tspan class="cls-33" x="57.48" y="0">e</tspan><tspan class="cls-16" x="64.65" y="0">x</tspan><tspan class="cls-15" x="71.17" y="0">t</tspan><tspan class="cls-16" x="75.02" y="0"> </tspan><tspan x="78.36" y="0">on</tspan><tspan class="cls-16" x="93.55" y="0"> </tspan><tspan class="cls-15" x="96.88" y="0">navigation</tspan><tspan class="cls-3" x="157.72" y="0"> </tspan><tspan class="cls-26" x="161.05" y="0">tab</tspan><tspan class="cls-49" x="179.8" y="0">s</tspan></text><text class="cls-50" transform="translate(0.02 529.55)">BE A HERO</text><text class="cls-50" transform="translate(316.09 529.55)">15<tspan class="cls-51" x="14.31" y="0">p</tspan><tspan class="cls-52" x="22.56" y="0">x</tspan></text><text class="cls-50" transform="translate(625.4 529.55)">Medium / Caps</text><text class="cls-48" transform="translate(788.8 400.61)">U<tspan class="cls-3" x="9.53" y="0">s</tspan><tspan x="15.76" y="0">ed to label</tspan><tspan class="cls-16" x="77.73" y="0"> </tspan><tspan class="cls-15" x="81.06" y="0">co</tspan><tspan class="cls-16" x="95.46" y="0">n</tspan><tspan x="102.9" y="0">te</tspan><tspan class="cls-3" x="114.36" y="0">n</tspan><tspan x="121.8" y="0">t</tspan><tspan class="cls-16" x="125.65" y="0"> </tspan><tspan class="cls-15" x="128.98" y="0">date</tspan><tspan class="cls-3" x="155.34" y="0"> </tspan><tspan x="158.67" y="0">for</tspan><tspan class="cls-53" x="174.47" y="0"> </tspan><tspan x="177.8" y="0">footage</tspan><tspan class="cls-3" x="223.32" y="0"> </tspan><tspan x="226.66" y="0">/</tspan><tspan class="cls-3" x="230.53" y="0"> </tspan><tspan x="233.87" y="0">e</tspan><tspan class="cls-3" x="241.48" y="0">d</tspan><tspan x="249.25" y="0">it</tspan><tspan class="cls-49" x="255.98" y="0">s</tspan></text><text class="cls-54" transform="translate(0.02 401.41)"><tspan class="cls-55">Be </tspan><tspan class="cls-56" x="22.93" y="0">a</tspan><tspan class="cls-55" x="31.38" y="0"> </tspan><tspan class="cls-57" x="35.5" y="0">h</tspan><tspan class="cls-55" x="44.5" y="0">e</tspan><tspan class="cls-57" x="53.08" y="0">r</tspan><tspan x="58.78" y="0">o </tspan></text><text class="cls-54" transform="translate(316.09 401.41)"><tspan class="cls-57">15</tspan><tspan class="cls-58" x="15.88" y="0">p</tspan><tspan x="24.61" y="0">x</tspan></text><text class="cls-54" transform="translate(464.78 401.41)"><tspan class="cls-59">0</tspan><tspan class="cls-57" x="9.29" y="0">.02e</tspan><tspan x="40.92" y="0">m</tspan></text><text class="cls-54" transform="translate(625.39 401.41)"><tspan class="cls-56">Bol</tspan><tspan x="23.25" y="0">d</tspan></text><text class="cls-13" transform="translate(788.8 593.37)"><tspan class="cls-17">U</tspan><tspan class="cls-3" x="9.53" y="0">s</tspan><tspan class="cls-17" x="15.76" y="0">ed for</tspan><tspan class="cls-16" x="50.3" y="0"> </tspan><tspan class="cls-15" x="53.63" y="0">t</tspan><tspan class="cls-33" x="57.48" y="0">e</tspan><tspan class="cls-16" x="64.65" y="0">x</tspan><tspan class="cls-15" x="71.17" y="0">t</tspan><tspan class="cls-16" x="75.02" y="0"> </tspan><tspan class="cls-17" x="78.36" y="0">on</tspan><tspan class="cls-16" x="93.55" y="0"> </tspan><tspan class="cls-15" x="96.88" y="0">dialog</tspan><tspan class="cls-16" x="133.05" y="0" xml:space="preserve"> b</tspan><tspan class="cls-60" x="144.16" y="0">ox</tspan><tspan class="cls-17" x="157.57" y="0">e</tspan><tspan x="165.18" y="0">s</tspan></text><text class="cls-61" transform="translate(625.39 593.37)">R<tspan class="cls-15" x="7.83" y="0">eg</tspan><tspan class="cls-16" x="23.21" y="0">u</tspan><tspan class="cls-15" x="30.65" y="0">la</tspan><tspan class="cls-62" x="40.64" y="0">r</tspan></text><text class="cls-63" transform="translate(0.03 593.37)"><tspan class="cls-64">Be a </tspan><tspan class="cls-65" x="30.81" y="0">h</tspan><tspan class="cls-64" x="38.51" y="0">er</tspan><tspan x="50.83" y="0">o</tspan></text><text class="cls-63" transform="translate(316.09 593.37)"><tspan class="cls-30">1</tspan><tspan class="cls-64" x="4.89" y="0">4</tspan><tspan class="cls-66" x="12.73" y="0">p</tspan><tspan x="20.27" y="0">x</tspan></text><text class="cls-67" transform="translate(464.79 593.37)">-<tspan class="cls-68" x="4.07" y="0">0</tspan><tspan x="12.15" y="0">.01</tspan><tspan class="cls-65" x="28.73" y="0">e</tspan><tspan class="cls-69" x="36.43" y="0">m</tspan></text><text class="cls-13" transform="translate(788.8 785.59)"><tspan class="cls-17">U</tspan><tspan class="cls-3" x="9.53" y="0">s</tspan><tspan class="cls-17" x="15.76" y="0">ed</tspan><tspan class="cls-16" x="31.16" y="0"> </tspan><tspan class="cls-15" x="34.5" y="0">for labelli</tspan><tspan class="cls-16" x="87.68" y="0">n</tspan><tspan class="cls-17" x="95.11" y="0">g t</tspan><tspan class="cls-70" x="110.08" y="0">e</tspan><tspan class="cls-16" x="117.25" y="0">x</tspan><tspan class="cls-17" x="123.77" y="0">t</tspan><tspan class="cls-16" x="127.62" y="0"> </tspan><tspan class="cls-15" x="130.95" y="0">in</tspan><tspan class="cls-3" x="141.29" y="0"> </tspan><tspan class="cls-15" x="144.62" y="0">editing</tspan><tspan class="cls-3" x="184.85" y="0"> </tspan><tspan class="cls-17" x="188.18" y="0">(</tspan><tspan class="cls-71" x="191.39" y="0">e.</tspan><tspan class="cls-26" x="201.76" y="0">g.</tspan><tspan class="cls-3" x="212.49" y="0"> </tspan><tspan class="cls-26" x="215.82" y="0">ﬁlter</tspan><tspan class="cls-53" x="241.38" y="0"> </tspan><tspan class="cls-17" x="244.71" y="0">name</tspan><tspan class="cls-25" x="277.94" y="0">s</tspan><tspan x="284.17" y="0">)</tspan></text><text class="cls-72" transform="translate(0.02 784.01)"><tspan class="cls-73">Be a her</tspan><tspan x="43.3" y="0">o</tspan></text><text class="cls-72" transform="translate(625.39 784.01)"><tspan class="cls-74">R</tspan><tspan class="cls-73" x="6.83" y="0">eg</tspan><tspan class="cls-75" x="20.26" y="0">u</tspan><tspan class="cls-73" x="26.75" y="0">la</tspan><tspan x="35.56" y="0">r</tspan></text><text class="cls-76" transform="translate(316.08 784.01)">12<tspan class="cls-77" x="10.91" y="0">p</tspan><tspan class="cls-78" x="17.32" y="0">x</tspan></text><text class="cls-76" transform="translate(464.78 784.01)">-<tspan class="cls-79" x="3.49" y="0">0</tspan><tspan x="10.34" y="0">.01e</tspan><tspan class="cls-80" x="30.84" y="0">m</tspan></text><text class="cls-13" transform="translate(788.8 721.51)"><tspan class="cls-17">U</tspan><tspan class="cls-3" x="9.53" y="0">s</tspan><tspan class="cls-17" x="15.76" y="0">ed for</tspan><tspan class="cls-16" x="50.3" y="0"> </tspan><tspan class="cls-15" x="53.63" y="0">labelling </tspan><tspan class="cls-16" x="106.24" y="0">c</tspan><tspan class="cls-15" x="112.89" y="0">amer</tspan><tspan class="cls-16" x="143.02" y="0">a</tspan><tspan class="cls-26" x="150.12" y="0"> </tspan><tspan class="cls-3" x="153.47" y="0">s</tspan><tspan class="cls-17" x="159.69" y="0">etting</tspan><tspan class="cls-3" x="193.11" y="0">s</tspan><tspan class="cls-26" x="199.34" y="0" xml:space="preserve"> in</tspan><tspan class="cls-3" x="213.02" y="0"> </tspan><tspan class="cls-17" x="216.35" y="0">ﬁlming</tspan><tspan class="cls-3" x="255.24" y="0"> </tspan><tspan class="cls-17" x="258.58" y="0">mo</tspan><tspan class="cls-25" x="277.36" y="0">d</tspan><tspan x="285.13" y="0">e</tspan></text><text class="cls-81" transform="translate(0.02 719.93)"><tspan class="cls-73">B</tspan><tspan class="cls-30" x="7.85" y="0">e</tspan><tspan class="cls-73" x="14.36" y="0" xml:space="preserve"> a her</tspan><tspan x="44.29" y="0">o</tspan></text><text class="cls-81" transform="translate(625.8 720.83)"><tspan class="cls-73">Bol</tspan><tspan x="17.56" y="0">d</tspan></text><text class="cls-82" transform="translate(318.8 719.84)">12<tspan class="cls-83" x="11.92" y="0">p</tspan><tspan class="cls-80" x="18.54" y="0">x</tspan></text><text class="cls-13" transform="translate(788.8 270.88)"><tspan class="cls-17">U</tspan><tspan class="cls-3" x="9.53" y="0">s</tspan><tspan class="cls-17" x="15.76" y="0">ed for</tspan><tspan class="cls-16" x="50.3" y="0"> </tspan><tspan class="cls-15" x="53.63" y="0">t</tspan><tspan class="cls-33" x="57.48" y="0">e</tspan><tspan class="cls-16" x="64.65" y="0">x</tspan><tspan class="cls-15" x="71.17" y="0">t</tspan><tspan class="cls-16" x="75.02" y="0"> </tspan><tspan class="cls-17" x="78.36" y="0">to</tspan><tspan class="cls-16" x="89.95" y="0"> </tspan><tspan class="cls-17" x="93.28" y="0">repre</tspan><tspan class="cls-16" x="124.99" y="0">s</tspan><tspan class="cls-15" x="131.22" y="0">e</tspan><tspan class="cls-16" x="138.83" y="0">n</tspan><tspan class="cls-15" x="146.27" y="0">t mo</tspan><tspan class="cls-25" x="172.25" y="0">d</tspan><tspan class="cls-26" x="180.02" y="0">es</tspan><tspan class="cls-3" x="193.88" y="0"> </tspan><tspan class="cls-26" x="197.21" y="0">whe</tspan><tspan class="cls-3" x="222.3" y="0">n </tspan><tspan class="cls-17" x="233.07" y="0">editin</tspan><tspan x="265.53" y="0">g</tspan></text><text class="cls-84" transform="translate(0.02 274.04)"><tspan class="cls-85">B</tspan><tspan class="cls-86" x="11.14" y="0">e </tspan><tspan class="cls-30" x="25.6" y="0">a</tspan><tspan class="cls-86" x="34.9" y="0" xml:space="preserve"> her</tspan><tspan x="64.91" y="0">o</tspan></text><text class="cls-87" transform="translate(316.08 274.04)">18<tspan class="cls-88" x="16.24" y="0">p</tspan><tspan class="cls-89" x="25.85" y="0">x</tspan></text><text class="cls-84" transform="translate(464.78 274.04)"><tspan class="cls-86">-</tspan><tspan class="cls-22" x="5.24" y="0">0</tspan><tspan class="cls-86" x="15.52" y="0">.01e</tspan><tspan x="46.26" y="0">m</tspan></text><text class="cls-84" transform="translate(625.4 274.04)"><tspan class="cls-90">R</tspan><tspan class="cls-86" x="10.24" y="0">egul</tspan><tspan class="cls-30" x="44.03" y="0">a</tspan><tspan x="53.33" y="0">r</tspan></text><text class="cls-13" transform="translate(788.8 657.44)"><tspan class="cls-17">U</tspan><tspan class="cls-3" x="9.53" y="0">s</tspan><tspan class="cls-17" x="15.76" y="0">ed for</tspan><tspan class="cls-16" x="50.3" y="0"> </tspan><tspan class="cls-15" x="53.63" y="0">s</tspan><tspan class="cls-16" x="59.88" y="0">c</tspan><tspan class="cls-17" x="66.53" y="0">reen</tspan><tspan class="cls-16" x="93.56" y="0"> </tspan><tspan class="cls-15" x="96.89" y="0">titles</tspan><tspan class="cls-16" x="124.22" y="0"> </tspan><tspan class="cls-15" x="127.55" y="0">(</tspan><tspan class="cls-91" x="130.76" y="0">e</tspan><tspan class="cls-92" x="138.28" y="0">.</tspan><tspan class="cls-17" x="141.12" y="0">g.</tspan><tspan class="cls-16" x="151.84" y="0"> </tspan><tspan class="cls-26" x="155.17" y="0">“gallery”</tspan><tspan x="204.77" y="0">)</tspan></text><text class="cls-93" transform="translate(0.03 657.44)">Be a hero</text><text class="cls-93" transform="translate(316.09 657.44)">14<tspan class="cls-94" x="14.11" y="0">p</tspan><tspan x="21.98" y="0">x</tspan></text><text class="cls-93" transform="translate(625.41 657.44)">Bold</text><g class="cls-11"><text class="cls-13" transform="translate(788.8 849.66)"><tspan class="cls-17">U</tspan><tspan class="cls-3" x="9.53" y="0">s</tspan><tspan class="cls-17" x="15.76" y="0">ed for</tspan><tspan class="cls-16" x="50.3" y="0"> </tspan><tspan class="cls-15" x="53.63" y="0">caption</tspan><tspan class="cls-3" x="97.1" y="0"> </tspan><tspan class="cls-15" x="100.43" y="0">/ bo</tspan><tspan class="cls-16" x="123.18" y="0">d</tspan><tspan class="cls-15" x="130.95" y="0">y t</tspan><tspan class="cls-70" x="144.74" y="0">e</tspan><tspan class="cls-3" x="151.91" y="0">x</tspan><tspan class="cls-26" x="158.44" y="0">t</tspan><tspan class="cls-3" x="162.28" y="0"> </tspan><tspan class="cls-17" x="165.62" y="0">- i</tspan><tspan class="cls-3" x="175.78" y="0">n</tspan><tspan class="cls-17" x="183.21" y="0">for</tspan><tspan class="cls-25" x="199.01" y="0">m</tspan><tspan class="cls-26" x="210.04" y="0">ativ</tspan><tspan x="230.48" y="0">e</tspan></text></g><text class="cls-95" transform="translate(0.02 848.08)">Be a hero</text><text class="cls-95" transform="translate(316.08 848.08)">12<tspan class="cls-96" x="11.12" y="0">p</tspan><tspan class="cls-78" x="17.65" y="0">x</tspan></text><text class="cls-95" transform="translate(625.39 848.08)"><tspan class="cls-97">R</tspan><tspan x="6.95" y="0">egular</tspan></text><line class="cls-98" x1="0.02" y1="32.86" x2="1079.8" y2="32.86"/><text class="cls-2" transform="translate(464.78 16.66)">Spa<tspan class="cls-5" x="32.6" y="0">c</tspan><tspan x="42.1" y="0">i</tspan><tspan class="cls-5" x="46.22" y="0">n</tspan><tspan class="cls-8" x="56.84" y="0">g</tspan></text><line class="cls-99" x1="432.81" y1="9.76" x2="452.75" y2="9.76"/><polyline class="cls-100" points="437.24 13.88 432.81 9.76 437.24 5.64"/><polyline class="cls-100" points="448.32 5.64 452.75 9.76 448.32 13.88"/><text class="cls-101" transform="translate(625.39 16.66)">W<tspan class="cls-4" x="16.46" y="0">eigh</tspan><tspan class="cls-8" x="53.22" y="0">t</tspan></text><rect class="cls-12" x="604.59" y="5.12" width="9.27" height="9.27"/><text class="cls-9" transform="translate(788.8 16.66)"><tspan class="cls-5">U</tspan><tspan class="cls-4" x="13.6" y="0">s</tspan><tspan class="cls-3" x="22.52" y="0">a</tspan><tspan class="cls-10" x="32.66" y="0">g</tspan><tspan x="43.76" y="0">e</tspan></text><g class="cls-11"><path class="cls-12" d="M793.29,65.76a2.86,2.86,0,1,0-2.86-2.86,2.87,2.87,0,0,0,2.86,2.86" transform="translate(-19.24 -53.14)"/><path class="cls-102" d="M793.29,67.29a4.39,4.39,0,1,0-4.38-4.39A4.4,4.4,0,0,0,793.29,67.29Z" transform="translate(-19.24 -53.14)"/></g><text class="cls-48" transform="translate(788.8 141.67)">U<tspan class="cls-3" x="9.53" y="0">s</tspan><tspan x="15.76" y="0">ed for</tspan><tspan class="cls-16" x="50.3" y="0"> </tspan><tspan class="cls-15" x="53.63" y="0">top level</tspan><tspan class="cls-16" x="103.93" y="0"> </tspan><tspan class="cls-26" x="107.27" y="0">headers</tspan><tspan class="cls-3" x="155.45" y="0"> </tspan><tspan x="158.78" y="0">a</tspan><tspan class="cls-3" x="165.9" y="0">n</tspan><tspan x="173.33" y="0">d</tspan><tspan class="cls-3" x="181.11" y="0"> </tspan><tspan x="184.45" y="0">i</tspan><tspan class="cls-3" x="187.33" y="0">n</tspan><tspan x="194.76" y="0">trodu</tspan><tspan class="cls-25" x="225.94" y="0">c</tspan><tspan class="cls-26" x="232.59" y="0">tion</tspan><tspan class="cls-3" x="254.52" y="0"> </tspan><tspan class="cls-26" x="257.85" y="0">title</tspan><tspan class="cls-49" x="278.93" y="0">s</tspan></text><text class="cls-27" transform="translate(316.08 146.41)"><tspan class="cls-10">20</tspan><tspan class="cls-32" x="23.64" y="0">p</tspan><tspan x="34.48" y="0">x</tspan></text><text class="cls-27" transform="translate(464.78 146.41)"><tspan class="cls-10">-</tspan><tspan class="cls-103" x="5.62" y="0">0</tspan><tspan class="cls-10" x="17.2" y="0">.</tspan><tspan class="cls-5" x="21.94" y="0">0</tspan><tspan class="cls-10" x="33.94" y="0">2</tspan><tspan class="cls-5" x="45.56" y="0">e</tspan><tspan x="56.22" y="0">m</tspan></text><text class="cls-27" transform="translate(625.4 146.41)"><tspan class="cls-5">B</tspan><tspan class="cls-10" x="12.86" y="0">ol</tspan><tspan x="28.64" y="0">d</tspan></text><text class="cls-27" transform="translate(0.02 146.41)"><tspan class="cls-5">B</tspan><tspan class="cls-10" x="12.86" y="0">e </tspan><tspan class="cls-5" x="28.28" y="0">a </tspan><tspan class="cls-4" x="43.46" y="0">h</tspan><tspan class="cls-5" x="54.68" y="0">e</tspan><tspan class="cls-10" x="65.34" y="0">r</tspan><tspan x="72.16" y="0">o</tspan></text></g></g></svg>